<svg xmlns="http://www.w3.org/2000/svg" viewBox="0 0 750 500"><g id="freepik--background-complete--inject-2"><path d="M303.24,142.07h0a39.36,39.36,0,0,1-53.45-15.52h0A39.35,39.35,0,0,1,265.31,73.1h0a39.35,39.35,0,0,1,53.45,15.52h0A39.36,39.36,0,0,1,303.24,142.07Z" style="fill:#fff"></path><path d="M303.24,142.07l.53-.36,1.58-1,1.17-.73c.41-.29.84-.65,1.32-1l1.53-1.19a19.71,19.71,0,0,0,1.63-1.49,37.14,37.14,0,0,0,7-8.85A39,39,0,0,0,323,113.34c.09-.68.19-1.38.29-2.09s.06-1.43.1-2.15.1-1.47.05-2.21-.09-1.49-.13-2.25c0-.38-.05-.76-.07-1.14l-.18-1.15c-.11-.76-.23-1.53-.35-2.31s-.39-1.54-.58-2.32a19.3,19.3,0,0,0-.67-2.33,36.4,36.4,0,0,0-1.88-4.62c-.38-.75-.72-1.53-1.14-2.28l-1.37-2.2c-.24-.37-.44-.75-.7-1.11l-.81-1c-.55-.7-1.06-1.42-1.64-2.1A42.41,42.41,0,0,0,310,78.2a41.25,41.25,0,0,0-4.42-3.38c-.79-.51-1.63-.95-2.45-1.44-.42-.22-.81-.49-1.25-.69l-1.31-.59a35.62,35.62,0,0,0-11.26-3.24l-1.49-.21-1.5-.07-1.52-.07a9.65,9.65,0,0,0-1.52,0l-3.05.16-3,.47A38.79,38.79,0,0,0,255.6,81l-2,2.32-1.78,2.5-.44.62-.38.66-.75,1.31-.75,1.31-.62,1.37a44.49,44.49,0,0,0-2.13,5.54,44.12,44.12,0,0,0-1.16,5.71l-.2,1.42c-.07.48-.06,1-.09,1.43,0,1-.11,1.9-.1,2.83a40.74,40.74,0,0,0,.49,5.56,42,42,0,0,0,1.17,5.3c.27.86.61,1.68.9,2.52l.45,1.24c.16.41.37.79.56,1.18l1.13,2.34c.4.75.88,1.46,1.31,2.18a36.71,36.71,0,0,0,2.89,4.07,21.43,21.43,0,0,0,1.61,1.81c.56.58,1.08,1.19,1.65,1.73l1.77,1.54.87.76.93.67,1.83,1.31c.6.45,1.27.76,1.89,1.14s1.25.74,1.88,1.07l1.92.88A39.26,39.26,0,0,0,283,146.74a37.36,37.36,0,0,0,11.24-1.22,21.05,21.05,0,0,0,2.13-.58l1.83-.66c.56-.2,1.09-.37,1.56-.57l1.24-.59,1.7-.8.58-.25s-.18.11-.56.3l-1.67.84-1.24.62c-.47.2-1,.38-1.56.6l-1.82.68a21.64,21.64,0,0,1-2.13.61A37.54,37.54,0,0,1,283,147a39.28,39.28,0,0,1-14.68-3.33l-1.95-.88c-.63-.33-1.25-.71-1.89-1.07s-1.31-.7-1.92-1.15l-1.85-1.32-.94-.67-.88-.77-1.79-1.55c-.59-.54-1.11-1.16-1.68-1.74a19,19,0,0,1-1.63-1.83,34.88,34.88,0,0,1-2.93-4.1c-.44-.73-.93-1.44-1.34-2.21l-1.15-2.36c-.18-.39-.4-.78-.56-1.19l-.47-1.26c-.29-.84-.64-1.67-.9-2.54a43.11,43.11,0,0,1-1.71-11c0-.95.07-1.91.1-2.87,0-.48,0-1,.08-1.45l.2-1.44a45.58,45.58,0,0,1,1.18-5.78,45.72,45.72,0,0,1,2.15-5.62l.62-1.38.76-1.33.77-1.33.38-.67.44-.63,1.8-2.53,2.06-2.35a39.21,39.21,0,0,1,21.9-12l3.09-.47,3.1-.17a11.31,11.31,0,0,1,1.54,0l1.53.07,1.53.07,1.51.21a44.19,44.19,0,0,1,5.89,1.19,46.77,46.77,0,0,1,5.51,2.11l1.32.6c.44.2.85.47,1.27.7.83.49,1.68.94,2.48,1.46a42.57,42.57,0,0,1,8.36,7.32c.59.69,1.11,1.43,1.66,2.13l.81,1.06c.27.36.48.75.71,1.12l1.38,2.23c.43.75.77,1.55,1.15,2.31a37.11,37.11,0,0,1,1.89,4.67,21.87,21.87,0,0,1,.68,2.36c.18.79.42,1.56.56,2.35s.24,1.57.36,2.34c.06.39.12.77.17,1.15l.07,1.16.12,2.27c.05.75,0,1.5-.06,2.23s-.05,1.46-.11,2.18l-.3,2.11a39.16,39.16,0,0,1-5,14.18,37.38,37.38,0,0,1-7.16,8.85,21.61,21.61,0,0,1-1.66,1.48l-1.55,1.17c-.49.36-.92.71-1.34,1l-1.18.71-1.61,1Z" style="fill:#e0e0e0"></path><path d="M287.07,105.58A9.66,9.66,0,0,0,287.81,95c-2.56-4.69-8.19-6.55-12.59-4.16s-5.89,8.14-3.34,12.82a9.64,9.64,0,0,0,9.41,5.13c-11.21,8.57-3.35,21.55-3.35,21.55l29-15.77S300.2,100.75,287.07,105.58Z" style="fill:#e0e0e0"></path><path d="M63.11,82.14h0a16.3,16.3,0,0,1-5.76-22.32h0a16.31,16.31,0,0,1,22.32-5.76h0a16.3,16.3,0,0,1,5.75,22.32h0A16.29,16.29,0,0,1,63.11,82.14Z" style="fill:#fff"></path><path d="M63.11,82.14a27,27,0,0,0,3.71,1.48,15.55,15.55,0,0,0,4.62.62,16.34,16.34,0,0,0,6-1.23,15.92,15.92,0,0,0,6-4.33,16.1,16.1,0,0,0,3.68-7.63,15,15,0,0,0,.17-4.6,17.63,17.63,0,0,0-.4-2.36,19.65,19.65,0,0,0-.81-2.3,16,16,0,0,0-16.33-9.64,19.09,19.09,0,0,0-2.4.41,18.81,18.81,0,0,0-2.26.78,15.22,15.22,0,0,0-3.95,2.38,16.13,16.13,0,0,0-3.94,20.13A15.39,15.39,0,0,0,60,79.6a25.47,25.47,0,0,0,3.1,2.54L62.87,82l-.66-.4a8.5,8.5,0,0,1-1-.73,12.11,12.11,0,0,1-1.3-1.13A15.26,15.26,0,0,1,57,76a16.47,16.47,0,0,1-1.11-13.51,16.55,16.55,0,0,1,5-7.13,16,16,0,0,1,4.06-2.47,20,20,0,0,1,2.33-.81,18.34,18.34,0,0,1,2.48-.42,16.43,16.43,0,0,1,16.85,9.94A17.16,17.16,0,0,1,87.41,64a18.57,18.57,0,0,1,.42,2.42,15.66,15.66,0,0,1-.2,4.75A16.43,16.43,0,0,1,71.44,84.53a15.63,15.63,0,0,1-4.68-.71,12.75,12.75,0,0,1-1.62-.6A8.17,8.17,0,0,1,64,82.67l-.67-.39Z" style="fill:#e0e0e0"></path><path d="M72.69,68.67a4,4,0,0,0,3.94-2,3.76,3.76,0,1,0-6.45-3.85,4,4,0,0,0,.16,4.44C64.92,65.1,62,70.64,62,70.64l11.73,7S77.19,72.33,72.69,68.67Z" style="fill:#e0e0e0"></path><circle cx="700.04" cy="83.72" r="19.26" transform="translate(467.83 749.41) rotate(-77.59)" style="fill:#fff"></circle><path d="M719.3,83.72a1.44,1.44,0,0,1,0-.31c0-.23,0-.53-.07-.91A9.24,9.24,0,0,0,719,81a12.74,12.74,0,0,0-.41-2A18.15,18.15,0,0,0,716.45,74a19.07,19.07,0,0,0-22.89-8.1,18,18,0,0,0-4.81,2.59,17.52,17.52,0,0,0-4,4,18.95,18.95,0,0,0,0,22.47,23.23,23.23,0,0,0,1.86,2.2A21.9,21.9,0,0,0,688.75,99a18,18,0,0,0,4.81,2.59,19.09,19.09,0,0,0,22.89-8.11,18.22,18.22,0,0,0,2.15-5.08,12.74,12.74,0,0,0,.41-2,9.37,9.37,0,0,0,.18-1.47c0-.38,0-.68.07-.91a1.64,1.64,0,0,1,0-.32,1.57,1.57,0,0,1,0,.32c0,.23,0,.53,0,.91a8.61,8.61,0,0,1-.12,1.49,13.79,13.79,0,0,1-.37,2,17.93,17.93,0,0,1-2.1,5.18,19.38,19.38,0,0,1-13.06,9.23A19.51,19.51,0,0,1,693.4,102a18.49,18.49,0,0,1-4.95-2.64,18.16,18.16,0,0,1-4.13-4.14,19.41,19.41,0,0,1,0-23.07,21,21,0,0,1,1.92-2.26,21.56,21.56,0,0,1,2.21-1.88,18.21,18.21,0,0,1,4.95-2.64,19.33,19.33,0,0,1,18.41,2.86,19.28,19.28,0,0,1,4.89,5.54A18.09,18.09,0,0,1,718.8,79a13.92,13.92,0,0,1,.37,2,8.75,8.75,0,0,1,.12,1.49c0,.38,0,.69,0,.92A1.43,1.43,0,0,1,719.3,83.72Z" style="fill:#e0e0e0"></path><path d="M691.73,82.69a5.21,5.21,0,0,1,1.15-2.88,4.91,4.91,0,0,1,2.48-1.75,4,4,0,0,1,4.53,1.78,3.94,3.94,0,0,1,1.1-1.36,4,4,0,0,1,3.09-.81,4.87,4.87,0,0,1,2.68,1.43,5.15,5.15,0,0,1,1.5,2.71,6.35,6.35,0,0,1-.54,3.91,8.94,8.94,0,0,1-2.88,3c-1.92,1.33-4.45,3-4.45,3s-2.33-1.52-4.4-2.6a9,9,0,0,1-3.24-2.67A6.32,6.32,0,0,1,691.73,82.69Z" style="fill:#e0e0e0"></path><path d="M704.85,370c-26.85-9.47-50.26,1.91-50.26,1.91C674.7,385.19,704.85,370,704.85,370Z" style="fill:#e0e0e0"></path><path d="M632.27,348.25c-2.27,17.33,7.79,30.83,7.79,30.83C645.54,365.6,632.27,348.25,632.27,348.25Z" style="fill:#e0e0e0"></path><path d="M643.67,385.46c18.48,9.94,37.9,4.51,37.9,4.51C668.76,378.09,643.67,385.46,643.67,385.46Z" style="fill:#e0e0e0"></path><path d="M664.82,358.64c-.29-.26-10.77,10.72-23.42,24.52S618.74,408.37,619,408.63s10.77-10.71,23.42-24.52S665.11,358.9,664.82,358.64Z" style="fill:#e0e0e0"></path><path d="M700,327.52s-31.76,6.74-39.36,34.74C660.68,362.26,687.86,356.88,700,327.52Z" style="fill:#e0e0e0"></path><path d="M659.33,322.87s-18.42,20.88-9.33,44A50.12,50.12,0,0,0,659.33,322.87Z" style="fill:#e0e0e0"></path><path d="M99,294.12c-6.64,30.57,9,54.54,9,54.54C119.61,324.92,99,294.12,99,294.12Z" style="fill:#e0e0e0"></path><path d="M85.15,376.23c19.2.11,32.54-12.72,32.54-12.72C102.24,359.38,85.15,376.23,85.15,376.23Z" style="fill:#e0e0e0"></path><path d="M124.15,358.71c8.31-21.51-.27-41.94-.27-41.94C112.68,332.36,124.15,358.71,124.15,358.71Z" style="fill:#e0e0e0"></path><path d="M92,339.32c-.25.35,13.15,10.28,29.93,22.17s30.59,21.26,30.84,20.91-13.16-10.27-29.94-22.17S92.26,339,92,339.32Z" style="fill:#e0e0e0"></path><path d="M53.26,305.19s11.7,33.7,43.27,38.15C96.53,343.34,86.94,314.44,53.26,305.19Z" style="fill:#e0e0e0"></path><path d="M53.78,350.2s25.27,17.22,49.27,4.15C103.05,354.35,81.69,339.36,53.78,350.2Z" style="fill:#e0e0e0"></path><polygon points="709.98 136.24 656.08 149.71 670.55 163.12 633.06 183.92 696.98 171.12 682.05 157.29 709.98 136.24" style="fill:#e0e0e0"></polygon><polygon points="461.91 53.88 450.72 82.62 461.44 80.36 458.83 104.02 473.54 70.96 462.49 73.28 461.91 53.88" style="fill:#e0e0e0"></polygon><polygon points="685.7 290.68 655.58 284.02 659.45 294.26 635.67 295.3 670.59 304.79 666.61 294.22 685.7 290.68" style="fill:#e0e0e0"></polygon></g><g id="freepik--Floor--inject-2"><path d="M692.85,464.91c0,.15-143.66.26-320.83.26s-320.87-.11-320.87-.26,143.63-.26,320.87-.26S692.85,464.77,692.85,464.91Z" style="fill:#263238"></path></g><g id="freepik--Coins--inject-2"><path d="M688.43,417.2a38.64,38.64,0,1,1-46.49-28.72A38.65,38.65,0,0,1,688.43,417.2Z" style="fill:#7942C8"></path><g style="opacity:0.1"><path d="M641.94,388.48A38.64,38.64,0,0,0,613.22,435s26.7-5.06,30.55-17.21S641.94,388.48,641.94,388.48Z" style="fill:#fff"></path></g><path d="M678.67,418.87A29.37,29.37,0,1,1,643.33,397,29.37,29.37,0,0,1,678.67,418.87Z" style="fill:#7942C8"></path><g style="opacity:0.2"><path d="M678.67,418.87A29.37,29.37,0,1,1,643.33,397,29.37,29.37,0,0,1,678.67,418.87Z"></path></g><path d="M679.76,419.87a29,29,0,1,1-34.86-21.53A29,29,0,0,1,679.76,419.87Z" style="fill:#7942C8"></path><g style="opacity:0.2"><path d="M679.76,419.87a29,29,0,1,1-34.86-21.53A29,29,0,0,1,679.76,419.87Z" style="fill:#fff"></path></g><path d="M652.11,423.83l-1.71-7.22h0a15.13,15.13,0,0,1,4.07.1,12.7,12.7,0,0,1,2.06.7l0-.24.5-2.86.12-.66-1.61-1.05-.55.43a13.75,13.75,0,0,0-5.58-.27l-.94-4-1.47-.71.23,1-1.69.4,1,4c-5.45,1.85-7.34,5.66-6.48,9.31,1.18,5,5.73,5.25,9.93,5.27l1.69,7.15a14.08,14.08,0,0,1-7.79-1l-.76,4c2.24,1.17,5.91,1.51,9.46.9l.71,3-1.39.36,1.62.61,2.93-.69-1-4c5.48-1.9,7.42-5.68,6.56-9.33C660.92,424.08,656.3,423.85,652.11,423.83Zm-3.11-.06c-2.22-.12-3.94-.54-4.35-2.26-.37-1.57.4-3.11,2.84-4.1Zm1.4-7.16Zm4.22,17.87-1.49-6.33c2.29.1,4,.55,4.47,2.31C658,432,657.14,433.47,654.62,434.48Z" style="fill:#7942C8"></path><g style="opacity:0.30000000000000004"><path d="M652.11,423.83l-1.71-7.22h0a15.13,15.13,0,0,1,4.07.1,12.7,12.7,0,0,1,2.06.7l0-.24.5-2.86.12-.66-1.61-1.05-.55.43a13.75,13.75,0,0,0-5.58-.27l-.94-4-1.47-.71.23,1-1.69.4,1,4c-5.45,1.85-7.34,5.66-6.48,9.31,1.18,5,5.73,5.25,9.93,5.27l1.69,7.15a14.08,14.08,0,0,1-7.79-1l-.76,4c2.24,1.17,5.91,1.51,9.46.9l.71,3-1.39.36,1.62.61,2.93-.69-1-4c5.48-1.9,7.42-5.68,6.56-9.33C660.92,424.08,656.3,423.85,652.11,423.83Zm-3.11-.06c-2.22-.12-3.94-.54-4.35-2.26-.37-1.57.4-3.11,2.84-4.1Zm1.4-7.16Zm4.22,17.87-1.49-6.33c2.29.1,4,.55,4.47,2.31C658,432,657.14,433.47,654.62,434.48Z"></path></g><path d="M654.1,437.68l.95,4-2.93.69-.94-4c-3.56.62-7.22.27-9.46-.9l.75-4a14.09,14.09,0,0,0,7.79,1l-1.69-7.15c-4.19,0-8.75-.31-9.93-5.28-.86-3.65,1-7.45,6.49-9.31l-1-4,2.93-.69.94,4a15.87,15.87,0,0,1,7.78.46l-.62,4a15.26,15.26,0,0,0-6.25-.56l1.71,7.22c4.2,0,8.82.26,10,5.23C661.52,432,659.58,435.78,654.1,437.68Zm-6.55-14.61-1.5-6.36c-2.45,1-3.22,2.53-2.84,4.11S645.34,423,647.55,423.07Zm8.6,6.69c-.41-1.75-2.18-2.2-4.47-2.3l1.5,6.33C655.7,432.78,656.52,431.3,656.15,429.76Z" style="fill:#7942C8"></path><path d="M657.77,455.14l.23-.08.67-.21,1.09-.33a11,11,0,0,0,1.46-.5l1.8-.74a6.59,6.59,0,0,0,1-.49l1.06-.56a12.49,12.49,0,0,0,1.12-.62l1.14-.76c.39-.27.81-.51,1.2-.82l1.18-1a31.2,31.2,0,0,0,4.72-4.9l1-1.54c.18-.26.37-.52.54-.79l.47-.85c.31-.57.66-1.14.94-1.74l.82-1.87.21-.48c.06-.16.11-.33.16-.49l.33-1,.33-1c.12-.34.16-.7.25-1,.15-.7.33-1.41.45-2.13l.27-2.21a29,29,0,0,0-4.19-17.75c-.42-.62-.83-1.24-1.23-1.85s-.91-1.14-1.36-1.71c-.24-.27-.44-.57-.7-.82s-.5-.5-.74-.76l-.74-.74-.37-.37-.4-.33L669,403.37c-.53-.41-1.1-.76-1.63-1.14l-.8-.55-.84-.47-1.63-.9a31.11,31.11,0,0,0-6.41-2.27l-1.49-.33c-.49-.1-1-.13-1.44-.19l-1.35-.17c-.44-.06-.87,0-1.29-.06l-1.2,0a8.19,8.19,0,0,0-1.11,0l-1.93.14a11.49,11.49,0,0,0-1.54.21l-1.12.19-.69.12a.87.87,0,0,1-.24,0l.23,0,.69-.14,1.12-.22a9.8,9.8,0,0,1,1.54-.24l1.94-.17a8.14,8.14,0,0,1,1.11,0h1.21c.41,0,.85,0,1.29.05l1.37.15c.47.07,1,.09,1.44.19l1.5.32a30.62,30.62,0,0,1,6.48,2.26l1.65.9c.28.16.56.3.84.47l.81.55c.54.38,1.11.73,1.64,1.14l1.59,1.32.4.33.37.37.75.76.75.76c.27.25.47.55.71.82.45.57.94,1.13,1.38,1.72l1.24,1.88A29.06,29.06,0,0,1,680.54,429c-.09.75-.18,1.5-.27,2.23s-.31,1.45-.46,2.16c-.09.35-.14.71-.26,1.05s-.22.68-.34,1l-.33,1c0,.17-.1.33-.16.5l-.21.48-.83,1.88c-.29.61-.65,1.18-1,1.76l-.48.85c-.17.28-.36.53-.54.8l-1.07,1.55a31.09,31.09,0,0,1-4.78,4.91l-1.2,1c-.39.31-.82.55-1.21.81l-1.15.75a11.59,11.59,0,0,1-1.13.62l-1.08.56a6.89,6.89,0,0,1-1,.47l-1.82.72a9.66,9.66,0,0,1-1.48.48l-1.1.31-.67.18Z" style="fill:#263238"></path><path d="M623,451.29s-.09-.08-.24-.25l-.66-.75c-.29-.33-.63-.73-1-1.23s-.81-1.05-1.22-1.71l-.68-1c-.23-.36-.43-.75-.67-1.14-.47-.78-.9-1.66-1.36-2.58a41.75,41.75,0,0,1-2.35-6.26,40.34,40.34,0,0,1-1.22-6.57c-.08-1-.17-2-.17-2.91,0-.46,0-.9,0-1.32s0-.83.05-1.22c0-.78.1-1.48.16-2.09a15.12,15.12,0,0,1,.21-1.57c.07-.4.13-.73.18-1a1.31,1.31,0,0,1,.08-.34,1.54,1.54,0,0,1,0,.35l-.12,1c-.06.42-.12.95-.16,1.56s-.12,1.31-.12,2.09l0,1.21c0,.42,0,.86,0,1.31,0,.91.11,1.88.19,2.89a39.78,39.78,0,0,0,3.55,12.75c.45.91.86,1.79,1.33,2.57.23.39.43.78.65,1.14l.66,1c.4.67.83,1.22,1.18,1.72a15.16,15.16,0,0,0,.95,1.26l.61.78A2,2,0,0,1,623,451.29Z" style="fill:#fff"></path><path d="M641.8,424.53a2.39,2.39,0,0,1-1-.62,4.62,4.62,0,0,1-1.44-2.52,4.56,4.56,0,0,1,.37-2.88,2.5,2.5,0,0,1,.7-1s-.25.39-.52,1.06a4.73,4.73,0,0,0,1,5.16C641.42,424.27,641.82,424.49,641.8,424.53Z" style="fill:#fff"></path><path d="M645.59,412.08c-.08,0-.26-.5-.42-1.14a2.61,2.61,0,0,1-.13-1.21,2.73,2.73,0,0,1,.41,1.14A2.54,2.54,0,0,1,645.59,412.08Z" style="fill:#fff"></path><path d="M645.74,395.7a6.51,6.51,0,0,1-.93.18,10.75,10.75,0,0,0-1.08.2c-.42.09-.91.17-1.43.32s-1.1.27-1.7.47-1.25.42-1.92.66a33.62,33.62,0,0,0-4.2,2,32.1,32.1,0,0,0-3.84,2.61c-.55.46-1.08.88-1.54,1.32s-.9.84-1.27,1.23-.71.75-1,1.07-.53.6-.72.84a4.94,4.94,0,0,1-.63.7,8.28,8.28,0,0,1,.54-.77,9.57,9.57,0,0,1,.69-.87c.28-.33.58-.72,1-1.11s.78-.83,1.26-1.26,1-.89,1.53-1.36a31.49,31.49,0,0,1,3.87-2.65,30.81,30.81,0,0,1,4.25-2c.68-.24,1.32-.48,1.94-.65s1.19-.32,1.73-.44a13.89,13.89,0,0,1,1.44-.28,9.73,9.73,0,0,1,1.1-.15A5,5,0,0,1,645.74,395.7Z" style="fill:#fff"></path><path d="M663.83,460.66a2.86,2.86,0,0,1-.63.34c-.41.2-1,.47-1.78.76a28,28,0,0,1-12.64,1.64c-.82-.08-1.48-.18-1.92-.27a3.29,3.29,0,0,1-.7-.17,3.4,3.4,0,0,1,.71.05c.46.06,1.11.13,1.93.19a32.09,32.09,0,0,0,6.36-.17,33,33,0,0,0,6.19-1.46c.77-.27,1.39-.5,1.81-.67A3.23,3.23,0,0,1,663.83,460.66Z" style="fill:#fff"></path><path d="M688.43,417.2s-.07-.21-.18-.61-.25-1-.5-1.76a39.41,39.41,0,0,0-2.68-6.53,38.7,38.7,0,0,0-2.66-4.35,37.46,37.46,0,0,0-3.87-4.67,38.94,38.94,0,0,0-12.06-8.4A38.3,38.3,0,0,0,649,387.61a38.6,38.6,0,0,0-9.79,1.75,39,39,0,0,0-4.86,1.89,42.31,42.31,0,0,0-4.67,2.62,38.54,38.54,0,0,0-14.33,17.18,37.76,37.76,0,0,0-1.9,5.64,36,36,0,0,0-1,6,38.54,38.54,0,0,0,5.59,23.66c.52.87,1.11,1.7,1.69,2.52s1.22,1.61,1.88,2.36a37.93,37.93,0,0,0,4.22,4.19,38.54,38.54,0,0,0,20.51,9,40.22,40.22,0,0,0,5.35.24,38.91,38.91,0,0,0,14.73-3.3,38.33,38.33,0,0,0,14.14-10.73,39.14,39.14,0,0,0,7-12.91,38.29,38.29,0,0,0,1.37-5.91,40.62,40.62,0,0,0,.43-5.08,39.57,39.57,0,0,0-.53-7c-.11-.8-.27-1.4-.34-1.81s-.11-.61-.11-.61.21.82.51,2.41a37.54,37.54,0,0,1,.17,12.14,36.72,36.72,0,0,1-1.35,5.94,39.14,39.14,0,0,1-7,13,38.66,38.66,0,0,1-14.2,10.82,38.32,38.32,0,0,1-9.6,2.85,37.37,37.37,0,0,1-5.22.49,40.74,40.74,0,0,1-5.39-.24,38.78,38.78,0,0,1-24.91-13.23c-.67-.75-1.28-1.56-1.9-2.37s-1.18-1.66-1.7-2.54a38.7,38.7,0,0,1-5.63-23.83,35.43,35.43,0,0,1,1-6,37.9,37.9,0,0,1,1.91-5.68,38.77,38.77,0,0,1,14.44-17.29,40.49,40.49,0,0,1,4.71-2.63A39.22,39.22,0,0,1,649,387.37a38.56,38.56,0,0,1,17.54,3.32,39.24,39.24,0,0,1,12.09,8.48,36.66,36.66,0,0,1,3.86,4.7,37.33,37.33,0,0,1,2.65,4.38,37.91,37.91,0,0,1,2.63,6.56C688.25,416.36,688.43,417.2,688.43,417.2Z" style="fill:#263238"></path><circle cx="100.06" cy="414.84" r="46.51" transform="translate(-294.42 252.08) rotate(-54.02)" style="fill:#7942C8"></circle><g style="opacity:0.1"><path d="M70.05,379.31a46.52,46.52,0,0,0-5.52,65.55s25.91-20,23.42-35.11S70.05,379.31,70.05,379.31Z" style="fill:#fff"></path></g><path d="M126,391.94a35.36,35.36,0,1,1-49.83-4.19A35.35,35.35,0,0,1,126,391.94Z" style="fill:#7942C8"></path><g style="opacity:0.2"><path d="M126,391.94a35.36,35.36,0,1,1-49.83-4.19A35.35,35.35,0,0,1,126,391.94Z"></path></g><path d="M127.74,392.42a34.88,34.88,0,1,1-49.15-4.14A34.86,34.86,0,0,1,127.74,392.42Z" style="fill:#7942C8"></path><g style="opacity:0.2"><path d="M127.74,392.42a34.88,34.88,0,1,1-49.15-4.14A34.86,34.86,0,0,1,127.74,392.42Z" style="fill:#fff"></path></g><path d="M100.21,411.72l-5.76-6.81,0,0a18.08,18.08,0,0,1,4.42-2.12,14.92,14.92,0,0,1,2.61-.36l-.09-.29-1-3.34-.24-.77-2.29-.25-.36.76a16.72,16.72,0,0,0-6.15,2.74l-3.17-3.75-2,.05.8.94-1.6,1.35,3.22,3.82c-4.84,5-4.8,10.07-1.89,13.52,4,4.69,9,2.51,13.53.26l5.71,6.75a16.87,16.87,0,0,1-8.92,3.14l1.36,4.7c3,0,7.16-1.59,10.64-4.19l2.39,2.83-1.3,1.14,2.08-.22,2.77-2.34-3.2-3.78c4.85-5,4.87-10.13,2-13.58C109.81,407.2,104.73,409.47,100.21,411.72Zm-3.37,1.63c-2.44,1.08-4.52,1.57-5.89-.05s-1.27-3.56.81-6Zm-2.4-8.45Zm14.27,16.89-5-6c2.51-1.14,4.65-1.62,6,0C110.94,417.3,110.86,419.33,108.71,421.79Z" style="fill:#7942C8"></path><g style="opacity:0.30000000000000004"><path d="M100.21,411.72l-5.76-6.81,0,0a18.08,18.08,0,0,1,4.42-2.12,14.92,14.92,0,0,1,2.61-.36l-.09-.29-1-3.34-.24-.77-2.29-.25-.36.76a16.72,16.72,0,0,0-6.15,2.74l-3.17-3.75-2,.05.8.94-1.6,1.35,3.22,3.82c-4.84,5-4.8,10.07-1.89,13.52,4,4.69,9,2.51,13.53.26l5.71,6.75a16.87,16.87,0,0,1-8.92,3.14l1.36,4.7c3,0,7.16-1.59,10.64-4.19l2.39,2.83-1.3,1.14,2.08-.22,2.77-2.34-3.2-3.78c4.85-5,4.87-10.13,2-13.58C109.81,407.2,104.73,409.47,100.21,411.72Zm-3.37,1.63c-2.44,1.08-4.52,1.57-5.89-.05s-1.27-3.56.81-6Zm-2.4-8.45Zm14.27,16.89-5-6c2.51-1.14,4.65-1.62,6,0C110.94,417.3,110.86,419.33,108.71,421.79Z"></path></g><path d="M109.89,425.51l3.2,3.78-2.77,2.34-3.17-3.75c-3.48,2.6-7.6,4.23-10.64,4.19l-1.36-4.69a17,17,0,0,0,8.92-3.14l-5.71-6.76c-4.52,2.26-9.56,4.44-13.53-.26-2.91-3.45-3-8.56,1.89-13.52l-3.23-3.82,2.77-2.34,3.17,3.75a19,19,0,0,1,8.6-3.73l1.5,4.58a18.27,18.27,0,0,0-7,2.8l5.77,6.82c4.52-2.25,9.61-4.53,13.57.17C114.76,415.38,114.74,420.49,109.89,425.51Zm-15-12.12-5.08-6c-2.08,2.4-2.07,4.47-.81,6S92.47,414.47,94.91,413.39Zm12.88,2.5c-1.4-1.66-3.55-1.18-6.06,0l5,6C108.94,419.37,109,417.34,107.79,415.89Z" style="fill:#7942C8"></path><path d="M123.34,442.25l.2-.21.6-.59c.28-.26.61-.57,1-.95a11.83,11.83,0,0,0,1.3-1.33L128,437.4a10,10,0,0,0,.81-1.07l.83-1.18a13.65,13.65,0,0,0,.87-1.28l.81-1.43c.27-.5.59-1,.84-1.53l.74-1.68a36.76,36.76,0,0,0,2.4-7.83c.1-.73.2-1.47.3-2.23,0-.37.1-.75.14-1.14s0-.77,0-1.17c0-.78.08-1.58.07-2.38l-.15-2.45,0-.63c0-.2-.07-.41-.1-.62-.06-.41-.13-.83-.19-1.25s-.13-.84-.2-1.26-.2-.84-.29-1.26c-.23-.84-.42-1.69-.68-2.54l-.92-2.52a34.8,34.8,0,0,0-14.16-16.76l-2.33-1.33c-.79-.4-1.6-.72-2.39-1.09-.4-.16-.78-.37-1.19-.5l-1.22-.4-1.2-.4-.59-.2-.61-.14-2.39-.55c-.79-.15-1.59-.22-2.37-.33l-1.16-.16c-.38,0-.77,0-1.15,0l-2.24-.08A37.67,37.67,0,0,0,92.13,381l-1.78.46c-.58.15-1.11.38-1.65.57l-1.54.56a13.06,13.06,0,0,0-1.41.64l-1.31.62a10.1,10.1,0,0,0-1.18.62l-2,1.21a13.57,13.57,0,0,0-1.54,1.06l-1.1.81-.68.5c-.15.11-.23.17-.24.16l.22-.19.66-.52,1.08-.85a12.5,12.5,0,0,1,1.53-1.08l2-1.25a9.39,9.39,0,0,1,1.18-.63l1.31-.64a13.08,13.08,0,0,1,1.41-.65l1.55-.58c.54-.19,1.07-.43,1.65-.59l1.79-.47a36.92,36.92,0,0,1,8.17-1.1l2.27.07c.38,0,.77,0,1.16,0l1.17.15c.78.11,1.59.18,2.39.33l2.41.55.61.14.61.2,1.21.4,1.22.41a11.43,11.43,0,0,1,1.21.5c.79.36,1.62.69,2.41,1.1l2.36,1.33a35.16,35.16,0,0,1,14.3,16.93c.31.85.62,1.7.92,2.54s.45,1.72.68,2.57a11.11,11.11,0,0,1,.29,1.27c.07.42.14.85.2,1.27s.13.85.19,1.27c0,.2.07.41.1.62l0,.63c.05.83.09,1.66.14,2.47s-.05,1.62-.07,2.41c0,.4,0,.79-.05,1.18s-.1.77-.15,1.15c-.1.76-.21,1.51-.31,2.25a37.12,37.12,0,0,1-2.45,7.87l-.77,1.68c-.25.55-.58,1-.85,1.53s-.56,1-.83,1.44a13.71,13.71,0,0,1-.88,1.28l-.85,1.18a9,9,0,0,1-.82,1.06l-1.56,1.76a13.65,13.65,0,0,1-1.32,1.32l-1,.92-.63.57C123.42,442.19,123.35,442.26,123.34,442.25Z" style="fill:#263238"></path><path d="M83.89,457.07a2.55,2.55,0,0,1-.4-.13l-1.12-.45c-.48-.2-1.07-.45-1.73-.79s-1.44-.68-2.24-1.16l-1.28-.73c-.44-.25-.87-.56-1.34-.85-.93-.58-1.87-1.3-2.87-2A49.68,49.68,0,0,1,67,445.49a51.18,51.18,0,0,1-4.9-6.38c-.64-1.06-1.27-2.06-1.76-3-.25-.49-.52-.95-.73-1.41L59,433.32c-.41-.84-.68-1.64-1-2.33s-.47-1.3-.62-1.8L57.05,428a1.9,1.9,0,0,1-.1-.41,2.17,2.17,0,0,1,.17.39c.1.29.24.66.41,1.13s.38,1.09.68,1.77.58,1.47,1,2.3l.63,1.32c.22.45.49.91.74,1.39.5,1,1.14,2,1.78,3a47.49,47.49,0,0,0,10.75,11.75c1,.73,1.91,1.45,2.83,2,.46.29.89.6,1.32.86l1.26.75c.79.49,1.55.85,2.2,1.2s1.23.62,1.71.83l1.09.51Z" style="fill:#fff"></path><path d="M89.52,418.1a3,3,0,0,1-1.44-.12,5.59,5.59,0,0,1-2.92-1.91A5.67,5.67,0,0,1,84,412.78a3,3,0,0,1,.23-1.43c.06,0,0,.55,0,1.41a5.64,5.64,0,0,0,3.91,5C89,418,89.53,418,89.52,418.1Z" style="fill:#fff"></path><path d="M86.82,402.66c-.07.06-.55-.39-1.07-1s-.88-1.16-.81-1.23.55.39,1.07,1S86.89,402.59,86.82,402.66Z" style="fill:#fff"></path><path d="M78.06,385a7.5,7.5,0,0,1-.9.7c-.3.21-.66.47-1.06.8s-.87.68-1.35,1.12-1,.9-1.57,1.44-1.11,1.13-1.7,1.76a40.34,40.34,0,0,0-3.42,4.42,39.79,39.79,0,0,0-2.7,4.9c-.34.79-.68,1.54-.94,2.26s-.5,1.39-.7,2-.34,1.19-.48,1.69-.25.93-.32,1.29a5.75,5.75,0,0,1-.29,1.1,7.17,7.17,0,0,1,.16-1.13,11.41,11.41,0,0,1,.26-1.3c.12-.51.24-1.09.44-1.72s.39-1.32.66-2,.58-1.49.92-2.29a37.18,37.18,0,0,1,2.7-5,38.87,38.87,0,0,1,3.47-4.45c.6-.62,1.16-1.23,1.74-1.75s1.1-1,1.61-1.41a17.57,17.57,0,0,1,1.4-1.09,11.82,11.82,0,0,1,1.09-.76A7.4,7.4,0,0,1,78.06,385Z" style="fill:#fff"></path><path d="M132.85,444.88a3.84,3.84,0,0,1-.49.7c-.33.45-.84,1.06-1.5,1.8a34.24,34.24,0,0,1-5.84,5.05,33.82,33.82,0,0,1-6.83,3.59c-.93.35-1.69.6-2.22.75a3.16,3.16,0,0,1-.84.19,5.44,5.44,0,0,1,.8-.32c.52-.18,1.26-.47,2.17-.85a37.71,37.71,0,0,0,12.58-8.58c.68-.71,1.22-1.3,1.58-1.71A3.29,3.29,0,0,1,132.85,444.88Z" style="fill:#fff"></path><path d="M135.59,384.83l-.52-.56c-.34-.36-.81-.94-1.5-1.62a47.5,47.5,0,0,0-6.43-5.55,46.74,46.74,0,0,0-5.23-3.22,43.8,43.8,0,0,0-6.69-2.9,46.85,46.85,0,0,0-17.52-2.46A46.8,46.8,0,0,0,63.45,386.4a49.91,49.91,0,0,0-3.59,5.35,46.44,46.44,0,0,0-5,33.34A43.59,43.59,0,0,0,57,432a46.39,46.39,0,0,0,18.88,22.35c1,.65,2.12,1.22,3.19,1.79s2.18,1.06,3.3,1.5a45.93,45.93,0,0,0,6.82,2.21,46.41,46.41,0,0,0,26.89-1.56,48.09,48.09,0,0,0,5.88-2.65,45.7,45.7,0,0,0,5.31-3.34,46.48,46.48,0,0,0,8.71-8.22,46.42,46.42,0,0,0,9.33-19.22,47,47,0,0,0,.5-17.68,47.08,47.08,0,0,0-4.05-12.77,47,47,0,0,0-4.4-7.27c-.55-.8-1-1.35-1.34-1.75l-.46-.6s.68.76,1.86,2.31a45.09,45.09,0,0,1,4.46,7.25,45.81,45.81,0,0,1,2.34,5.69,44.47,44.47,0,0,1,1.78,7.11,46.9,46.9,0,0,1-.45,17.76,46.36,46.36,0,0,1-9.35,19.35,46.38,46.38,0,0,1-8.75,8.28,47.76,47.76,0,0,1-5.34,3.38,49.46,49.46,0,0,1-5.92,2.67,46.71,46.71,0,0,1-27.08,1.59A46.2,46.2,0,0,1,82.27,458c-1.13-.45-2.22-1-3.33-1.51s-2.16-1.15-3.21-1.81a46.75,46.75,0,0,1-19-22.52,43.88,43.88,0,0,1-2.17-7,46.62,46.62,0,0,1,5-33.57,50.62,50.62,0,0,1,3.63-5.38,47.18,47.18,0,0,1,13.84-11.95,45.79,45.79,0,0,1,10.39-4.32,45,45,0,0,1,10.25-1.66,47.13,47.13,0,0,1,17.59,2.51,44.61,44.61,0,0,1,6.71,2.95,44.86,44.86,0,0,1,11.63,8.86C135,384,135.59,384.83,135.59,384.83Z" style="fill:#263238"></path><rect x="541.89" y="355.13" width="85.53" height="15.53" transform="translate(1169.32 725.79) rotate(180)" style="fill:#7942C8"></rect><path d="M619.05,370.77c.19,0,.35-3.45.35-7.7s-.16-7.71-.35-7.71-.36,3.45-.36,7.71S618.85,370.77,619.05,370.77Z" style="fill:#263238"></path><path d="M623.73,370.77c.19,0,.35-3.45.35-7.7s-.16-7.71-.35-7.71-.36,3.45-.36,7.71S623.53,370.77,623.73,370.77Z" style="fill:#263238"></path><path d="M608.77,370.77c.2,0,.36-3.45.36-7.7s-.16-7.71-.36-7.71-.36,3.45-.36,7.71S608.57,370.77,608.77,370.77Z" style="fill:#263238"></path><path d="M613.45,370.77c.2,0,.35-3.45.35-7.7s-.15-7.71-.35-7.71-.36,3.45-.36,7.71S613.25,370.77,613.45,370.77Z" style="fill:#263238"></path><path d="M598.49,370.77c.2,0,.36-3.45.36-7.7s-.16-7.71-.36-7.71-.35,3.45-.35,7.71S598.3,370.77,598.49,370.77Z" style="fill:#263238"></path><path d="M603.17,370.77c.2,0,.36-3.45.36-7.7s-.16-7.71-.36-7.71-.35,3.45-.35,7.71S603,370.77,603.17,370.77Z" style="fill:#263238"></path><path d="M588.22,370.77c.19,0,.35-3.45.35-7.7s-.16-7.71-.35-7.71-.36,3.45-.36,7.71S588,370.77,588.22,370.77Z" style="fill:#263238"></path><path d="M592.89,370.77c.2,0,.36-3.45.36-7.7s-.16-7.71-.36-7.71-.35,3.45-.35,7.71S592.7,370.77,592.89,370.77Z" style="fill:#263238"></path><path d="M577.94,370.77c.19,0,.35-3.45.35-7.7s-.16-7.71-.35-7.71-.36,3.45-.36,7.71S577.74,370.77,577.94,370.77Z" style="fill:#263238"></path><path d="M582.62,370.77c.19,0,.35-3.45.35-7.7s-.16-7.71-.35-7.71-.36,3.45-.36,7.71S582.42,370.77,582.62,370.77Z" style="fill:#263238"></path><path d="M567.66,370.77c.2,0,.36-3.45.36-7.7s-.16-7.71-.36-7.71-.36,3.45-.36,7.71S567.46,370.77,567.66,370.77Z" style="fill:#263238"></path><path d="M572.34,370.77c.2,0,.35-3.45.35-7.7s-.15-7.71-.35-7.71-.36,3.45-.36,7.71S572.14,370.77,572.34,370.77Z" style="fill:#263238"></path><path d="M557.38,370.77c.2,0,.36-3.45.36-7.7s-.16-7.71-.36-7.71-.35,3.45-.35,7.71S557.19,370.77,557.38,370.77Z" style="fill:#263238"></path><path d="M562.06,370.77c.2,0,.36-3.45.36-7.7s-.16-7.71-.36-7.71-.35,3.45-.35,7.71S561.86,370.77,562.06,370.77Z" style="fill:#263238"></path><path d="M547.11,370.77c.19,0,.35-3.45.35-7.7s-.16-7.71-.35-7.71-.36,3.45-.36,7.71S546.91,370.77,547.11,370.77Z" style="fill:#263238"></path><path d="M551.78,370.77c.2,0,.36-3.45.36-7.7s-.16-7.71-.36-7.71-.35,3.45-.35,7.71S551.59,370.77,551.78,370.77Z" style="fill:#263238"></path><path d="M541.89,355.13c0,.2,19.24.36,43,.36s43-.16,43-.36-19.24-.36-43-.36S541.89,354.93,541.89,355.13Z" style="fill:#263238"></path><rect x="547.49" y="370.91" width="85.53" height="15.53" transform="translate(1180.52 757.35) rotate(180)" style="fill:#7942C8"></rect><path d="M624.65,386.55c.19,0,.35-3.45.35-7.71s-.16-7.7-.35-7.7-.36,3.45-.36,7.7S624.45,386.55,624.65,386.55Z" style="fill:#263238"></path><path d="M629.33,386.55c.19,0,.35-3.45.35-7.71s-.16-7.7-.35-7.7-.36,3.45-.36,7.7S629.13,386.55,629.33,386.55Z" style="fill:#263238"></path><path d="M614.37,386.55c.2,0,.36-3.45.36-7.71s-.16-7.7-.36-7.7-.36,3.45-.36,7.7S614.17,386.55,614.37,386.55Z" style="fill:#263238"></path><path d="M619.05,386.55c.19,0,.35-3.45.35-7.71s-.16-7.7-.35-7.7-.36,3.45-.36,7.7S618.85,386.55,619.05,386.55Z" style="fill:#263238"></path><path d="M604.09,386.55c.2,0,.36-3.45.36-7.71s-.16-7.7-.36-7.7-.35,3.45-.35,7.7S603.9,386.55,604.09,386.55Z" style="fill:#263238"></path><path d="M608.77,386.55c.2,0,.36-3.45.36-7.71s-.16-7.7-.36-7.7-.36,3.45-.36,7.7S608.57,386.55,608.77,386.55Z" style="fill:#263238"></path><path d="M593.81,386.55c.2,0,.36-3.45.36-7.71s-.16-7.7-.36-7.7-.35,3.45-.35,7.7S593.62,386.55,593.81,386.55Z" style="fill:#263238"></path><path d="M598.49,386.55c.2,0,.36-3.45.36-7.71s-.16-7.7-.36-7.7-.35,3.45-.35,7.7S598.3,386.55,598.49,386.55Z" style="fill:#263238"></path><path d="M583.54,386.55c.19,0,.35-3.45.35-7.71s-.16-7.7-.35-7.7-.36,3.45-.36,7.7S583.34,386.55,583.54,386.55Z" style="fill:#263238"></path><path d="M588.22,386.55c.19,0,.35-3.45.35-7.71s-.16-7.7-.35-7.7-.36,3.45-.36,7.7S588,386.55,588.22,386.55Z" style="fill:#263238"></path><path d="M573.26,386.55c.2,0,.36-3.45.36-7.71s-.16-7.7-.36-7.7-.36,3.45-.36,7.7S573.06,386.55,573.26,386.55Z" style="fill:#263238"></path><path d="M577.94,386.55c.19,0,.35-3.45.35-7.71s-.16-7.7-.35-7.7-.36,3.45-.36,7.7S577.74,386.55,577.94,386.55Z" style="fill:#263238"></path><path d="M563,386.55c.2,0,.36-3.45.36-7.71s-.16-7.7-.36-7.7-.35,3.45-.35,7.7S562.79,386.55,563,386.55Z" style="fill:#263238"></path><path d="M567.66,386.55c.2,0,.36-3.45.36-7.71s-.16-7.7-.36-7.7-.36,3.45-.36,7.7S567.46,386.55,567.66,386.55Z" style="fill:#263238"></path><path d="M552.7,386.55c.2,0,.36-3.45.36-7.71s-.16-7.7-.36-7.7-.35,3.45-.35,7.7S552.51,386.55,552.7,386.55Z" style="fill:#263238"></path><path d="M557.38,386.55c.2,0,.36-3.45.36-7.71s-.16-7.7-.36-7.7-.35,3.45-.35,7.7S557.19,386.55,557.38,386.55Z" style="fill:#263238"></path><path d="M547.49,370.91c0,.19,19.24.35,43,.35s43-.16,43-.35-19.24-.36-43-.36S547.49,370.71,547.49,370.91Z" style="fill:#263238"></path><rect x="540.5" y="386.55" width="85.53" height="15.53" transform="translate(1166.54 788.63) rotate(180)" style="fill:#7942C8"></rect><path d="M617.66,402.19c.19,0,.35-3.45.35-7.71s-.16-7.7-.35-7.7-.36,3.45-.36,7.7S617.46,402.19,617.66,402.19Z" style="fill:#263238"></path><path d="M622.34,402.19c.19,0,.35-3.45.35-7.71s-.16-7.7-.35-7.7-.36,3.45-.36,7.7S622.14,402.19,622.34,402.19Z" style="fill:#263238"></path><path d="M607.38,402.19c.2,0,.36-3.45.36-7.71s-.16-7.7-.36-7.7-.36,3.45-.36,7.7S607.18,402.19,607.38,402.19Z" style="fill:#263238"></path><path d="M612.06,402.19c.19,0,.35-3.45.35-7.71s-.16-7.7-.35-7.7-.36,3.45-.36,7.7S611.86,402.19,612.06,402.19Z" style="fill:#263238"></path><path d="M597.1,402.19c.2,0,.36-3.45.36-7.71s-.16-7.7-.36-7.7-.35,3.45-.35,7.7S596.91,402.19,597.1,402.19Z" style="fill:#263238"></path><path d="M601.78,402.19c.2,0,.36-3.45.36-7.71s-.16-7.7-.36-7.7-.36,3.45-.36,7.7S601.58,402.19,601.78,402.19Z" style="fill:#263238"></path><path d="M586.82,402.19c.2,0,.36-3.45.36-7.71s-.16-7.7-.36-7.7-.35,3.45-.35,7.7S586.63,402.19,586.82,402.19Z" style="fill:#263238"></path><path d="M591.5,402.19c.2,0,.36-3.45.36-7.71s-.16-7.7-.36-7.7-.35,3.45-.35,7.7S591.31,402.19,591.5,402.19Z" style="fill:#263238"></path><path d="M576.55,402.19c.19,0,.35-3.45.35-7.71s-.16-7.7-.35-7.7-.36,3.45-.36,7.7S576.35,402.19,576.55,402.19Z" style="fill:#263238"></path><path d="M581.23,402.19c.19,0,.35-3.45.35-7.71s-.16-7.7-.35-7.7-.36,3.45-.36,7.7S581,402.19,581.23,402.19Z" style="fill:#263238"></path><path d="M566.27,402.19c.2,0,.36-3.45.36-7.71s-.16-7.7-.36-7.7-.36,3.45-.36,7.7S566.07,402.19,566.27,402.19Z" style="fill:#263238"></path><path d="M571,402.19c.19,0,.35-3.45.35-7.71s-.16-7.7-.35-7.7-.36,3.45-.36,7.7S570.75,402.19,571,402.19Z" style="fill:#263238"></path><path d="M556,402.19c.2,0,.36-3.45.36-7.71s-.16-7.7-.36-7.7-.35,3.45-.35,7.7S555.8,402.19,556,402.19Z" style="fill:#263238"></path><path d="M560.67,402.19c.2,0,.36-3.45.36-7.71s-.16-7.7-.36-7.7-.36,3.45-.36,7.7S560.47,402.19,560.67,402.19Z" style="fill:#263238"></path><path d="M545.71,402.19c.2,0,.36-3.45.36-7.71s-.16-7.7-.36-7.7-.35,3.45-.35,7.7S545.52,402.19,545.71,402.19Z" style="fill:#263238"></path><path d="M550.39,402.19c.2,0,.36-3.45.36-7.71s-.16-7.7-.36-7.7-.35,3.45-.35,7.7S550.2,402.19,550.39,402.19Z" style="fill:#263238"></path><path d="M540.5,386.55c0,.19,19.29.35,43.07.35s43.07-.16,43.07-.35-19.28-.36-43.07-.36S540.5,386.35,540.5,386.55Z" style="fill:#263238"></path><rect x="547.21" y="401.96" width="85.53" height="15.53" transform="translate(1179.95 819.45) rotate(180)" style="fill:#7942C8"></rect><path d="M624.36,417.6c.2,0,.36-3.45.36-7.71s-.16-7.7-.36-7.7-.35,3.45-.35,7.7S624.17,417.6,624.36,417.6Z" style="fill:#263238"></path><path d="M629,417.6c.2,0,.36-3.45.36-7.71s-.16-7.7-.36-7.7-.36,3.45-.36,7.7S628.84,417.6,629,417.6Z" style="fill:#263238"></path><path d="M614.08,417.6c.2,0,.36-3.45.36-7.71s-.16-7.7-.36-7.7-.35,3.45-.35,7.7S613.89,417.6,614.08,417.6Z" style="fill:#263238"></path><path d="M618.76,417.6c.2,0,.36-3.45.36-7.71s-.16-7.7-.36-7.7-.35,3.45-.35,7.7S618.57,417.6,618.76,417.6Z" style="fill:#263238"></path><path d="M603.81,417.6c.19,0,.35-3.45.35-7.71s-.16-7.7-.35-7.7-.36,3.45-.36,7.7S603.61,417.6,603.81,417.6Z" style="fill:#263238"></path><path d="M608.49,417.6c.19,0,.35-3.45.35-7.71s-.16-7.7-.35-7.7-.36,3.45-.36,7.7S608.29,417.6,608.49,417.6Z" style="fill:#263238"></path><path d="M593.53,417.6c.2,0,.36-3.45.36-7.71s-.16-7.7-.36-7.7-.36,3.45-.36,7.7S593.33,417.6,593.53,417.6Z" style="fill:#263238"></path><path d="M598.21,417.6c.19,0,.35-3.45.35-7.71s-.16-7.7-.35-7.7-.36,3.45-.36,7.7S598,417.6,598.21,417.6Z" style="fill:#263238"></path><path d="M583.25,417.6c.2,0,.36-3.45.36-7.71s-.16-7.7-.36-7.7-.35,3.45-.35,7.7S583.06,417.6,583.25,417.6Z" style="fill:#263238"></path><path d="M587.93,417.6c.2,0,.36-3.45.36-7.71s-.16-7.7-.36-7.7-.36,3.45-.36,7.7S587.73,417.6,587.93,417.6Z" style="fill:#263238"></path><path d="M573,417.6c.2,0,.36-3.45.36-7.71s-.16-7.7-.36-7.7-.35,3.45-.35,7.7S572.78,417.6,573,417.6Z" style="fill:#263238"></path><path d="M577.65,417.6c.2,0,.36-3.45.36-7.71s-.16-7.7-.36-7.7-.35,3.45-.35,7.7S577.46,417.6,577.65,417.6Z" style="fill:#263238"></path><path d="M562.7,417.6c.19,0,.35-3.45.35-7.71s-.16-7.7-.35-7.7-.36,3.45-.36,7.7S562.5,417.6,562.7,417.6Z" style="fill:#263238"></path><path d="M567.38,417.6c.19,0,.35-3.45.35-7.71s-.16-7.7-.35-7.7-.36,3.45-.36,7.7S567.18,417.6,567.38,417.6Z" style="fill:#263238"></path><path d="M552.42,417.6c.2,0,.36-3.45.36-7.71s-.16-7.7-.36-7.7-.36,3.45-.36,7.7S552.22,417.6,552.42,417.6Z" style="fill:#263238"></path><path d="M557.1,417.6c.19,0,.35-3.45.35-7.71s-.16-7.7-.35-7.7-.36,3.45-.36,7.7S556.9,417.6,557.1,417.6Z" style="fill:#263238"></path><path d="M547.21,402c0,.19,19.24.35,43,.35s43-.16,43-.35-19.23-.36-43-.36S547.21,401.76,547.21,402Z" style="fill:#263238"></path><rect x="538.64" y="417.71" width="85.53" height="15.53" transform="translate(1162.81 850.96) rotate(180)" style="fill:#7942C8"></rect><path d="M615.79,433.35c.2,0,.36-3.45.36-7.7s-.16-7.71-.36-7.71-.36,3.45-.36,7.71S615.59,433.35,615.79,433.35Z" style="fill:#263238"></path><path d="M620.47,433.35c.19,0,.35-3.45.35-7.7s-.16-7.71-.35-7.71-.36,3.45-.36,7.71S620.27,433.35,620.47,433.35Z" style="fill:#263238"></path><path d="M605.51,433.35c.2,0,.36-3.45.36-7.7s-.16-7.71-.36-7.71-.35,3.45-.35,7.71S605.32,433.35,605.51,433.35Z" style="fill:#263238"></path><path d="M610.19,433.35c.2,0,.36-3.45.36-7.7s-.16-7.71-.36-7.71-.36,3.45-.36,7.71S610,433.35,610.19,433.35Z" style="fill:#263238"></path><path d="M595.23,433.35c.2,0,.36-3.45.36-7.7s-.16-7.71-.36-7.71-.35,3.45-.35,7.71S595,433.35,595.23,433.35Z" style="fill:#263238"></path><path d="M599.91,433.35c.2,0,.36-3.45.36-7.7s-.16-7.71-.36-7.71-.35,3.45-.35,7.71S599.72,433.35,599.91,433.35Z" style="fill:#263238"></path><path d="M585,433.35c.19,0,.35-3.45.35-7.7s-.16-7.71-.35-7.71-.36,3.45-.36,7.71S584.76,433.35,585,433.35Z" style="fill:#263238"></path><path d="M589.64,433.35c.19,0,.35-3.45.35-7.7s-.16-7.71-.35-7.71-.36,3.45-.36,7.71S589.44,433.35,589.64,433.35Z" style="fill:#263238"></path><path d="M574.68,433.35c.2,0,.36-3.45.36-7.7s-.16-7.71-.36-7.71-.36,3.45-.36,7.71S574.48,433.35,574.68,433.35Z" style="fill:#263238"></path><path d="M579.36,433.35c.2,0,.35-3.45.35-7.7s-.15-7.71-.35-7.71-.36,3.45-.36,7.71S579.16,433.35,579.36,433.35Z" style="fill:#263238"></path><path d="M564.4,433.35c.2,0,.36-3.45.36-7.7s-.16-7.71-.36-7.71-.35,3.45-.35,7.71S564.21,433.35,564.4,433.35Z" style="fill:#263238"></path><path d="M569.08,433.35c.2,0,.36-3.45.36-7.7s-.16-7.71-.36-7.71-.36,3.45-.36,7.71S568.88,433.35,569.08,433.35Z" style="fill:#263238"></path><path d="M554.12,433.35c.2,0,.36-3.45.36-7.7s-.16-7.71-.36-7.71-.35,3.45-.35,7.71S553.93,433.35,554.12,433.35Z" style="fill:#263238"></path><path d="M558.8,433.35c.2,0,.36-3.45.36-7.7s-.16-7.71-.36-7.71-.35,3.45-.35,7.71S558.61,433.35,558.8,433.35Z" style="fill:#263238"></path><path d="M543.85,433.35c.19,0,.35-3.45.35-7.7s-.16-7.71-.35-7.71-.36,3.45-.36,7.71S543.65,433.35,543.85,433.35Z" style="fill:#263238"></path><path d="M548.53,433.35c.19,0,.35-3.45.35-7.7s-.16-7.71-.35-7.71-.36,3.45-.36,7.71S548.33,433.35,548.53,433.35Z" style="fill:#263238"></path><path d="M538.64,417.71c0,.2,19.23.36,43,.36s43-.16,43-.36-19.24-.35-43-.35S538.64,417.52,538.64,417.71Z" style="fill:#263238"></path><rect x="544" y="433.42" width="85.53" height="15.53" transform="translate(1173.53 882.38) rotate(180)" style="fill:#7942C8"></rect><path d="M621.15,449.06c.2,0,.36-3.45.36-7.7s-.16-7.71-.36-7.71-.35,3.45-.35,7.71S621,449.06,621.15,449.06Z" style="fill:#263238"></path><path d="M625.83,449.06c.2,0,.36-3.45.36-7.7s-.16-7.71-.36-7.71-.35,3.45-.35,7.71S625.63,449.06,625.83,449.06Z" style="fill:#263238"></path><path d="M610.88,449.06c.19,0,.35-3.45.35-7.7s-.16-7.71-.35-7.71-.36,3.45-.36,7.71S610.68,449.06,610.88,449.06Z" style="fill:#263238"></path><path d="M615.55,449.06c.2,0,.36-3.45.36-7.7s-.16-7.71-.36-7.71-.35,3.45-.35,7.71S615.36,449.06,615.55,449.06Z" style="fill:#263238"></path><path d="M600.6,449.06c.19,0,.35-3.45.35-7.7s-.16-7.71-.35-7.71-.36,3.45-.36,7.71S600.4,449.06,600.6,449.06Z" style="fill:#263238"></path><path d="M605.28,449.06c.19,0,.35-3.45.35-7.7s-.16-7.71-.35-7.71-.36,3.45-.36,7.71S605.08,449.06,605.28,449.06Z" style="fill:#263238"></path><path d="M590.32,449.06c.2,0,.36-3.45.36-7.7s-.16-7.71-.36-7.71-.36,3.45-.36,7.71S590.12,449.06,590.32,449.06Z" style="fill:#263238"></path><path d="M595,449.06c.2,0,.36-3.45.36-7.7s-.16-7.71-.36-7.71-.36,3.45-.36,7.71S594.8,449.06,595,449.06Z" style="fill:#263238"></path><path d="M580,449.06c.2,0,.36-3.45.36-7.7s-.16-7.71-.36-7.71-.35,3.45-.35,7.71S579.85,449.06,580,449.06Z" style="fill:#263238"></path><path d="M584.72,449.06c.2,0,.36-3.45.36-7.7s-.16-7.71-.36-7.71-.35,3.45-.35,7.71S584.53,449.06,584.72,449.06Z" style="fill:#263238"></path><path d="M569.77,449.06c.19,0,.35-3.45.35-7.7s-.16-7.71-.35-7.71-.36,3.45-.36,7.71S569.57,449.06,569.77,449.06Z" style="fill:#263238"></path><path d="M574.44,449.06c.2,0,.36-3.45.36-7.7s-.16-7.71-.36-7.71-.35,3.45-.35,7.71S574.25,449.06,574.44,449.06Z" style="fill:#263238"></path><path d="M559.49,449.06c.19,0,.35-3.45.35-7.7s-.16-7.71-.35-7.71-.36,3.45-.36,7.71S559.29,449.06,559.49,449.06Z" style="fill:#263238"></path><path d="M564.17,449.06c.19,0,.35-3.45.35-7.7s-.16-7.71-.35-7.71-.36,3.45-.36,7.71S564,449.06,564.17,449.06Z" style="fill:#263238"></path><path d="M549.21,449.06c.2,0,.36-3.45.36-7.7s-.16-7.71-.36-7.71-.36,3.45-.36,7.71S549,449.06,549.21,449.06Z" style="fill:#263238"></path><path d="M553.89,449.06c.2,0,.36-3.45.36-7.7s-.16-7.71-.36-7.71-.36,3.45-.36,7.71S553.69,449.06,553.89,449.06Z" style="fill:#263238"></path><path d="M544,433.42c0,.2,19.28.36,43.07.36s43.07-.16,43.07-.36-19.28-.35-43.07-.35S544,433.23,544,433.42Z" style="fill:#263238"></path><rect x="550.71" y="448.83" width="85.53" height="15.53" transform="translate(1186.95 913.2) rotate(180)" style="fill:#7942C8"></rect><path d="M627.86,464.47c.19,0,.35-3.45.35-7.7s-.16-7.71-.35-7.71-.36,3.45-.36,7.71S627.66,464.47,627.86,464.47Z" style="fill:#263238"></path><path d="M632.54,464.47c.19,0,.35-3.45.35-7.7s-.16-7.71-.35-7.71-.36,3.45-.36,7.71S632.34,464.47,632.54,464.47Z" style="fill:#263238"></path><path d="M617.58,464.47c.2,0,.36-3.45.36-7.7s-.16-7.71-.36-7.71-.36,3.45-.36,7.71S617.38,464.47,617.58,464.47Z" style="fill:#263238"></path><path d="M622.26,464.47c.2,0,.36-3.45.36-7.7s-.16-7.71-.36-7.71-.36,3.45-.36,7.71S622.06,464.47,622.26,464.47Z" style="fill:#263238"></path><path d="M607.3,464.47c.2,0,.36-3.45.36-7.7s-.16-7.71-.36-7.71-.35,3.45-.35,7.71S607.11,464.47,607.3,464.47Z" style="fill:#263238"></path><path d="M612,464.47c.2,0,.36-3.45.36-7.7s-.16-7.71-.36-7.71-.35,3.45-.35,7.71S611.78,464.47,612,464.47Z" style="fill:#263238"></path><path d="M597,464.47c.19,0,.35-3.45.35-7.7s-.16-7.71-.35-7.71-.36,3.45-.36,7.71S596.83,464.47,597,464.47Z" style="fill:#263238"></path><path d="M601.7,464.47c.2,0,.36-3.45.36-7.7s-.16-7.71-.36-7.71-.35,3.45-.35,7.71S601.51,464.47,601.7,464.47Z" style="fill:#263238"></path><path d="M586.75,464.47c.19,0,.35-3.45.35-7.7s-.16-7.71-.35-7.71-.36,3.45-.36,7.71S586.55,464.47,586.75,464.47Z" style="fill:#263238"></path><path d="M591.43,464.47c.19,0,.35-3.45.35-7.7s-.16-7.71-.35-7.71-.36,3.45-.36,7.71S591.23,464.47,591.43,464.47Z" style="fill:#263238"></path><path d="M576.47,464.47c.2,0,.36-3.45.36-7.7s-.16-7.71-.36-7.71-.36,3.45-.36,7.71S576.27,464.47,576.47,464.47Z" style="fill:#263238"></path><path d="M581.15,464.47c.2,0,.36-3.45.36-7.7s-.16-7.71-.36-7.71-.36,3.45-.36,7.71S581,464.47,581.15,464.47Z" style="fill:#263238"></path><path d="M566.19,464.47c.2,0,.36-3.45.36-7.7s-.16-7.71-.36-7.71-.35,3.45-.35,7.71S566,464.47,566.19,464.47Z" style="fill:#263238"></path><path d="M570.87,464.47c.2,0,.36-3.45.36-7.7s-.16-7.71-.36-7.71-.35,3.45-.35,7.71S570.68,464.47,570.87,464.47Z" style="fill:#263238"></path><path d="M555.92,464.47c.19,0,.35-3.45.35-7.7s-.16-7.71-.35-7.71-.36,3.45-.36,7.71S555.72,464.47,555.92,464.47Z" style="fill:#263238"></path><path d="M560.59,464.47c.2,0,.36-3.45.36-7.7s-.16-7.71-.36-7.71-.35,3.45-.35,7.71S560.4,464.47,560.59,464.47Z" style="fill:#263238"></path><path d="M550.71,448.83c0,.2,19.23.36,43,.36s43-.16,43-.36-19.24-.35-43-.35S550.71,448.64,550.71,448.83Z" style="fill:#263238"></path><g style="opacity:0.30000000000000004"><path d="M626,386.55c-12.78,3.14-26.39,3.74-39.51,2.87s-26.38-2.8-39.54-2.64Z"></path></g><g style="opacity:0.30000000000000004"><path d="M625.27,371.09c-12.78,3.14-26.39,3.74-39.51,2.87s-26.38-2.8-39.54-2.64Z"></path></g><g style="opacity:0.30000000000000004"><path d="M621.13,402.11c-12.78,3.14-26.39,3.75-39.52,2.88s-26.38-2.81-39.53-2.65Z"></path></g><g style="opacity:0.30000000000000004"><path d="M624.48,417.62c-12.77,3.14-26.39,3.75-39.51,2.87s-26.38-2.8-39.54-2.64Z"></path></g><g style="opacity:0.30000000000000004"><path d="M623.46,433.06c-12.77,3.14-26.38,3.75-39.51,2.88s-26.38-2.81-39.53-2.65Z"></path></g><g style="opacity:0.30000000000000004"><path d="M627.64,448.8c-12.77,3.14-26.39,3.75-39.51,2.88s-26.38-2.8-39.53-2.65Z"></path></g><path d="M625.86,365.75c.2,0,.36-1.9.36-4.25s-.16-4.25-.36-4.25-.36,1.9-.36,4.25S625.66,365.75,625.86,365.75Z" style="fill:#fff"></path><path d="M631.25,382.35c.2,0,.36-2,.36-4.56s-.16-4.57-.36-4.57-.35,2-.35,4.57S631.06,382.35,631.25,382.35Z" style="fill:#fff"></path><path d="M623.58,398.33c.2,0,.35-1.82.35-4.05s-.15-4-.35-4-.36,1.82-.36,4S623.38,398.33,623.58,398.33Z" style="fill:#fff"></path><path d="M631.46,413.05c.2,0,.36-1.62.36-3.63s-.16-3.63-.36-3.63-.35,1.63-.35,3.63S631.27,413.05,631.46,413.05Z" style="fill:#fff"></path><path d="M600.14,372.19c0,.19,6.31.35,14.1.35s14.11-.16,14.11-.35-6.31-.36-14.11-.36S600.14,372,600.14,372.19Z" style="fill:#fff"></path><path d="M591,357.25c0,.2,6.36.35,14.21.35s14.21-.15,14.21-.35-6.36-.36-14.21-.36S591,357.05,591,357.25Z" style="fill:#fff"></path><path d="M577.32,357.46c0,.19,2.09.35,4.66.35s4.67-.16,4.67-.35-2.09-.36-4.67-.36S577.32,357.26,577.32,357.46Z" style="fill:#fff"></path><path d="M623,432.69a68,68,0,0,0,0-11.88,65.47,65.47,0,0,0,0,11.88Z" style="fill:#fff"></path><path d="M558,415.88c0,.14,15.55.26,34.74.26s34.74-.12,34.74-.26-15.55-.26-34.74-.26S558,415.73,558,415.88Z" style="fill:#fff"></path><path d="M571.86,447.25c0,.15,12.29.27,27.45.27s27.46-.12,27.46-.27-12.3-.26-27.46-.26S571.86,447.11,571.86,447.25Z" style="fill:#fff"></path><path d="M635.06,461.37a21.84,21.84,0,0,0,0-6.72,21.84,21.84,0,0,0,0,6.72Z" style="fill:#fff"></path><path d="M574.55,462.72c0,.14,12.74.26,28.46.26s28.46-.12,28.46-.26-12.74-.26-28.46-.26S574.55,462.57,574.55,462.72Z" style="fill:#fff"></path><path d="M636.24,464.37a1.07,1.07,0,0,0,0-.28c0-.23,0-.5,0-.83,0-.77,0-1.82.06-3.14,0-2.77,0-6.67.08-11.43v-.21h-.21l-6.1,0,.23.23c0-4.67,0-9.93,0-15.51V433h-5.92l.26.27c0-5.63,0-11,0-15.76l-.24.24,8.26,0H633v-.2c0-4.72-.07-8.59-.09-11.34,0-1.3,0-2.34-.06-3.1,0-.33,0-.6,0-.82a.14.14,0,1,0-.06,0c0,.22,0,.49,0,.82,0,.76,0,1.8,0,3.1,0,2.75,0,6.62-.09,11.34l.2-.2-8.26,0h-.24v.24c0,4.8,0,10.13,0,15.76v.26h5.92l-.26-.26c0,5.58,0,10.84,0,15.51V449h.23l6.1-.09-.2-.21c0,4.76.06,8.66.08,11.43,0,1.32,0,2.37.06,3.14,0,.33,0,.6,0,.83A1.07,1.07,0,0,0,636.24,464.37Z" style="fill:#263238"></path></g><g id="freepik--Device--inject-2"><path d="M151.33,183.25H524.49a23,23,0,0,1,23,23v224a30.86,30.86,0,0,1-30.86,30.86H158.14a30.86,30.86,0,0,1-30.86-30.86v-223a24,24,0,0,1,24-24Z" style="fill:#263238"></path><path d="M109.71,440.6H565a0,0,0,0,1,0,0v10.59a13.72,13.72,0,0,1-13.72,13.72H123.44a13.72,13.72,0,0,1-13.72-13.72V440.6a0,0,0,0,1,0,0Z" style="fill:#263238"></path><rect x="138.57" y="194.3" width="396.5" height="234.68" rx="15.37" style="fill:#fff"></rect><polygon points="295.98 440.6 301.63 449.58 381.13 449.58 386.37 440.6 295.98 440.6" style="fill:#455a64"></polygon><rect x="127.35" y="440.51" width="420.23" height="1.34" style="fill:#455a64"></rect><rect x="172.1" y="355.29" width="35.89" height="73.68" style="fill:#ebebeb"></rect><rect x="228.65" y="318.32" width="35.89" height="110.65" style="fill:#ebebeb"></rect><rect x="287.19" y="318.32" width="35.89" height="110.65" style="fill:#ebebeb"></rect><rect x="407.22" y="264.52" width="35.89" height="164.45" style="fill:#ebebeb"></rect><rect x="462.13" y="229.07" width="35.89" height="199.91" style="fill:#ebebeb"></rect><path d="M246.76,348.23l41.88-60.3,78.7-61.36,42.43,112.52s-48.1,30.79-60.61,33.89-21.65,2.77-35.5,23Z" style="fill:#ffbf9d"></path><path d="M426.18,208.14c1.18-.06,15.58,10.34,7.47,18.81-8.63,9-39.39,35.27-39.39,35.27s-15.6-1.46-12.24-10.45S426.18,208.14,426.18,208.14Z" style="fill:#ffbf9d"></path><path d="M438.47,362a90.92,90.92,0,0,1-22.36-1.61,90.28,90.28,0,0,1-34.22-162.65l79.55-55.46,24.45,35.07-79.54,55.46a47.53,47.53,0,0,0,53.9,78.3l79-60,25.88,34-79.75,60.62L485,346A89.52,89.52,0,0,1,438.47,362Z" style="fill:#7942C8"></path><polygon points="524.74 299.58 532.65 309.79 565.1 285.13 558.2 276.09 524.74 299.58" style="fill:#e0e0e0"></polygon><polygon points="445.86 191.64 452.44 200.69 485.89 177.36 479.31 168.15 445.86 191.64" style="fill:#e0e0e0"></polygon><g style="opacity:0.30000000000000004"><path d="M438.55,362.12a90.89,90.89,0,0,1-22.36-1.61A90.29,90.29,0,0,1,382,197.85l79.54-55.46L486,177.47l-79.55,55.46a47.53,47.53,0,0,0,53.91,78.3l79-60,25.88,34-79.74,60.62-.39.27A89.61,89.61,0,0,1,438.55,362.12Z"></path></g><path d="M431.83,352.9a91,91,0,0,1-22.37-1.61,90.29,90.29,0,0,1-34.21-162.66l79.54-55.46,24.46,35.08L399.7,223.71A47.53,47.53,0,0,0,453.61,302l79-60,25.9,34.44L478.7,336.64l-.38.27A89.64,89.64,0,0,1,431.83,352.9Z" style="fill:#7942C8"></path><path d="M394.19,278.42l2.56-2c5.79-6.34,4.76-12.44-1.17-16.39a7.81,7.81,0,0,0-3.71-1.4c-6.45-.49-22.86,2-29.75,5.16s-10.14,11.06-5.56,16.63,10.51,4.43,20,3.38A54.71,54.71,0,0,0,394.19,278.42Z" style="fill:#ffbf9d"></path><path d="M372.44,290.3s-9.56,6.88-5.65,14.61,8.53,7.13,16.93,5.77,21.33-13.95,21.33-13.95,5.22-7.84,1-13.34c-5.72-7.46-10.43-4.38-15.34-2.63S372.44,290.3,372.44,290.3Z" style="fill:#ffbf9d"></path><path d="M393,309s-6.88,12.52,2.08,16.85c7.94,3.84,15-3.72,19.27-9.77s8.06-11.19,2-15.84c-5.74-4.4-8.85-4.87-12.58-2.22C398.18,301.94,393,309,393,309Z" style="fill:#ffbf9d"></path><path d="M270.6,315s17.48-47.71,23.18-59.71,40.33-39.65,40.33-39.65l36.17-16.52s13.51,15.87-2.94,27.45A304.91,304.91,0,0,1,336,245.9l-3.41,22.88s10.61,54.59-32.5,87.56Z" style="fill:#ffbf9d"></path><path d="M337.09,245.84a1.09,1.09,0,0,1-.08.26l-.26.75c-.25.65-.58,1.62-1,2.88a63.44,63.44,0,0,0-2.28,11,117.24,117.24,0,0,0-.65,16.59c.11,6.25.54,13.13.51,20.38A80.4,80.4,0,0,1,331,317.91a46.69,46.69,0,0,1-7,15.09,32.94,32.94,0,0,1-8,7.91l-1.48,1c-.44.27-.83.45-1.13.62l-.71.37-.25.11a1.14,1.14,0,0,1,.23-.16l.67-.41c.3-.18.68-.38,1.11-.66l1.45-1a34.58,34.58,0,0,0,7.77-8,47,47,0,0,0,6.82-15,81.28,81.28,0,0,0,2.25-20.15c0-7.21-.39-14.09-.47-20.36a113.89,113.89,0,0,1,.76-16.65,59.34,59.34,0,0,1,2.46-11c.43-1.25.79-2.22,1.07-2.86l.31-.73A1.31,1.31,0,0,1,337.09,245.84Z" style="fill:#ff9a6c"></path><polygon points="420.59 157.14 445.86 191.64 479.31 168.15 454.97 132.86 420.59 157.14" style="fill:#e0e0e0"></polygon><polygon points="498.93 267.38 525.86 300.94 558.47 276.42 532.73 241.89 498.93 267.38" style="fill:#e0e0e0"></polygon><path d="M387.86,258.66a6.12,6.12,0,0,1,1.21-.11l.66,0,.79.05.91.06,1,.2a10.83,10.83,0,0,1,8.28,7.52v0a10.84,10.84,0,0,1-.83,5,15.25,15.25,0,0,1-5.21,6.4,25.47,25.47,0,0,1-6,3.1c-1.79.67-3.28,1.09-4.31,1.38a10.64,10.64,0,0,1-1.62.38,9.85,9.85,0,0,1,1.56-.57c1-.35,2.48-.82,4.24-1.53a26.66,26.66,0,0,0,5.84-3.15,15.12,15.12,0,0,0,5-6.21,10.36,10.36,0,0,0,.8-4.78v0a10.68,10.68,0,0,0-3.41-5.14,10.89,10.89,0,0,0-4.45-2.19l-1-.22-.89-.1-.78-.09h-.65A6.43,6.43,0,0,1,387.86,258.66Z" style="fill:#ff9a6c"></path><path d="M406.61,294.06a3.05,3.05,0,0,1-.48.79c-.33.49-.84,1.18-1.5,2a49.3,49.3,0,0,1-5.67,6,34.31,34.31,0,0,1-6.75,4.79,18.49,18.49,0,0,1-2.27,1.06,3.53,3.53,0,0,1-.88.28c0-.08,1.16-.59,3-1.66a41.15,41.15,0,0,0,6.59-4.86,67.07,67.07,0,0,0,5.73-5.87A31.94,31.94,0,0,1,406.61,294.06Z" style="fill:#ff9a6c"></path><polygon points="156.92 428.97 245.65 338.27 325.27 402.73 304.77 429.11 156.92 428.97" style="fill:#7942C8"></polygon><path d="M202,215.19a31.41,31.41,0,0,1,7.56-3.29l1.56-7.49,12.65-.22,1.82,7.43a30.91,30.91,0,0,1,7.68,3l6.39-4.19,9.11,8.79-4,6.54a31,31,0,0,1,3.29,7.56l7.49,1.56.22,12.65-7.43,1.82a30.91,30.91,0,0,1-3,7.68l4.19,6.39-8.79,9.11-6.53-4a31.09,31.09,0,0,1-7.57,3.29l-1.56,7.49-12.65.22-1.82-7.43a31.07,31.07,0,0,1-7.68-3l-6.39,4.19-9.1-8.79,4-6.53a31.48,31.48,0,0,1-3.29-7.57l-7.48-1.56-.23-12.65,7.43-1.82a31.07,31.07,0,0,1,3-7.68l-4.19-6.39,8.79-9.1,6.54,4ZM208.72,232a13.57,13.57,0,1,0,19.19-.33A13.57,13.57,0,0,0,208.72,232Z" style="fill:#e0e0e0"></path><path d="M178,289.49a22.49,22.49,0,0,1,5.5-2.39l1.14-5.45,9.21-.16,1.32,5.4a22.82,22.82,0,0,1,5.59,2.2l4.65-3,6.63,6.4-2.89,4.76a22.52,22.52,0,0,1,2.4,5.5l5.45,1.14.16,9.21-5.41,1.32a22.43,22.43,0,0,1-2.2,5.59l3,4.65-6.39,6.63-4.76-2.88a22.55,22.55,0,0,1-5.51,2.39l-1.13,5.45-9.21.16L184.3,331a22.18,22.18,0,0,1-5.58-2.19l-4.66,3.05-6.62-6.4,2.88-4.76a22.39,22.39,0,0,1-2.39-5.51L162.48,314l-.16-9.21,5.4-1.32a22.82,22.82,0,0,1,2.2-5.59l-3-4.66,6.4-6.62,4.76,2.88Zm4.91,12.27a9.88,9.88,0,1,0,14-.25A9.88,9.88,0,0,0,182.94,301.76Z" style="fill:#ebebeb"></path><path d="M271.81,213.46a15.5,15.5,0,0,1,3.72-1.62l.76-3.68,6.22-.11.89,3.65a14.89,14.89,0,0,1,3.77,1.49l3.15-2.06,4.47,4.32-2,3.21a15.26,15.26,0,0,1,1.62,3.71l3.67.77.11,6.22-3.65.89a15.16,15.16,0,0,1-1.48,3.77l2.06,3.14-4.32,4.47-3.21-1.94a14.92,14.92,0,0,1-3.72,1.61l-.76,3.68-6.22.11-.89-3.65a15.16,15.16,0,0,1-3.77-1.48L269.14,242l-4.48-4.32,1.95-3.21a15.08,15.08,0,0,1-1.61-3.72l-3.68-.77-.11-6.21,3.65-.9a15.16,15.16,0,0,1,1.48-3.77L264.28,216l4.32-4.47,3.21,2Zm3.31,8.28a6.67,6.67,0,1,0,9.43-.17A6.68,6.68,0,0,0,275.12,221.74Z" style="fill:#ebebeb"></path><rect x="346.18" y="378.83" width="35.89" height="50.14" style="fill:#ebebeb"></rect></g><g id="freepik--Clouds--inject-2"><path d="M189.07,284.39a12.63,12.63,0,0,0-13.6-.35,15,15,0,0,0-23.93-7.49,15.16,15.16,0,0,0-25.61,9.52c-6,.32-12.15,4.26-13.4,11h81.52A12.64,12.64,0,0,0,189.07,284.39Z" style="fill:#fff"></path><path d="M189.07,284.39s.27.17.77.55a12,12,0,0,1,1.94,2,13.11,13.11,0,0,1,2.07,4,12.42,12.42,0,0,1,.33,6.12l0,.11h-.11l-81.52.13h-.33l.07-.31.1-.4a13.1,13.1,0,0,1,5-7.74,15.76,15.76,0,0,1,8.49-3l-.24.23a15.39,15.39,0,0,1,26-9.65h-.29a15.32,15.32,0,0,1,8.06-3.35,14.88,14.88,0,0,1,7.81,1.23A15.44,15.44,0,0,1,175.6,284l-.2-.08a12.54,12.54,0,0,1,5.86-1.78,13.16,13.16,0,0,1,4.48.57,12.42,12.42,0,0,1,2.54,1.14c.53.34.79.54.79.54s-.08,0-.22-.11l-.6-.37a13.22,13.22,0,0,0-2.55-1.06,13.08,13.08,0,0,0-4.43-.5,12.25,12.25,0,0,0-5.73,1.8l-.15.1,0-.18a15.2,15.2,0,0,0-8.22-9.47,14.5,14.5,0,0,0-7.62-1.16,15,15,0,0,0-7.82,3.28l-.15.13-.14-.14a14.93,14.93,0,0,0-25.21,9.39l0,.22h-.22a15.27,15.27,0,0,0-8.21,2.95,12.51,12.51,0,0,0-4.85,7.43,3,3,0,0,0-.09.38l-.26-.31,81.52.13-.13.11a12.35,12.35,0,0,0-.27-6,12.76,12.76,0,0,0-3.85-6l-.55-.45C189.12,284.45,189.06,284.4,189.07,284.39Z" style="fill:#263238"></path><path d="M323,394a12.32,12.32,0,0,0-13.29-.35,14.63,14.63,0,0,0-23.41-7.32,14.83,14.83,0,0,0-25,9.31c-5.84.31-11.88,4.17-13.1,10.73h79.73A12.33,12.33,0,0,0,323,394Z" style="fill:#fff"></path><path d="M323,394s.27.17.76.54a11.81,11.81,0,0,1,1.9,2,12.49,12.49,0,0,1,2,3.93,12.1,12.1,0,0,1,.33,6l0,.11h-.11l-79.73.12h-.33l.08-.31.09-.39a12.71,12.71,0,0,1,4.94-7.57,15.44,15.44,0,0,1,8.31-3l-.24.23a15.06,15.06,0,0,1,25.45-9.44h-.29a15,15,0,0,1,7.89-3.27,14.48,14.48,0,0,1,7.64,1.2,15.11,15.11,0,0,1,8.15,9.52l-.2-.08a12.08,12.08,0,0,1,5.73-1.74,12.87,12.87,0,0,1,4.38.55,11.64,11.64,0,0,1,2.49,1.12c.51.33.76.53.76.53l-.2-.11-.6-.36a13.48,13.48,0,0,0-2.49-1,12.8,12.8,0,0,0-4.33-.48,11.9,11.9,0,0,0-5.6,1.76l-.15.09-.05-.17a14.84,14.84,0,0,0-8-9.26,14.07,14.07,0,0,0-7.45-1.13,14.63,14.63,0,0,0-7.65,3.2l-.15.13-.14-.14a14.6,14.6,0,0,0-24.64,9.18l0,.22h-.22a15,15,0,0,0-8,2.88,12.28,12.28,0,0,0-4.74,7.27l-.09.37-.26-.31,79.73.13-.13.11a12,12,0,0,0-.27-5.87,12.53,12.53,0,0,0-1.93-3.9,13.15,13.15,0,0,0-1.83-2l-.54-.43Z" style="fill:#263238"></path><path d="M500.74,391.15a12.34,12.34,0,0,0-13.3-.35,14.62,14.62,0,0,0-23.4-7.32A14.83,14.83,0,0,0,439,392.79c-5.85.31-11.88,4.17-13.1,10.73h79.72A12.32,12.32,0,0,0,500.74,391.15Z" style="fill:#fff"></path><path d="M500.74,391.15s.27.16.76.53a12.39,12.39,0,0,1,1.9,2,12.71,12.71,0,0,1,2,3.93,12.21,12.21,0,0,1,.33,6l0,.11h-.12l-79.72.12h-.33l.07-.3.09-.39a12.77,12.77,0,0,1,4.95-7.57,15.44,15.44,0,0,1,8.31-3l-.24.23a15.06,15.06,0,0,1,25.45-9.44l-.29,0a15,15,0,0,1,7.89-3.26,14.5,14.5,0,0,1,7.64,1.2,15.06,15.06,0,0,1,8.14,9.52l-.2-.08a12.15,12.15,0,0,1,5.74-1.74,12.66,12.66,0,0,1,4.38.55,11.88,11.88,0,0,1,2.49,1.12c.51.33.76.53.76.53l-.21-.11-.59-.36a12.52,12.52,0,0,0-6.82-1.53,12,12,0,0,0-5.6,1.77l-.16.09-.05-.17a14.83,14.83,0,0,0-8-9.26,14.11,14.11,0,0,0-7.45-1.13,14.51,14.51,0,0,0-7.65,3.2l-.15.12-.14-.13a14.6,14.6,0,0,0-24.64,9.18l0,.22H439a14.93,14.93,0,0,0-8,2.88,12.29,12.29,0,0,0-4.75,7.27l-.09.37-.25-.31,79.72.13-.13.1a11.92,11.92,0,0,0-.26-5.86,12.57,12.57,0,0,0-3.77-5.89l-.53-.44Z" style="fill:#263238"></path><path d="M269.35,254.85a8.07,8.07,0,0,0-8.68-.23,9.55,9.55,0,0,0-15.28-4.77A9.67,9.67,0,0,0,229,255.92c-3.81.21-7.75,2.72-8.55,7h52.05A8.07,8.07,0,0,0,269.35,254.85Z" style="fill:#fff"></path><path d="M269.35,254.85a5.9,5.9,0,0,1,1.76,1.61,8.21,8.21,0,0,1,1.56,6.5l0,.1h-.11c-10.6.08-30,.13-52.05.13h-.33l.07-.31.06-.25a8.42,8.42,0,0,1,3.27-5,10.14,10.14,0,0,1,5.47-2l-.24.23a9.91,9.91,0,0,1,16.76-6.21h-.29a9.7,9.7,0,0,1,15.54,4.91l-.2-.08a8,8,0,0,1,3.77-1.13,8.23,8.23,0,0,1,2.87.37,5.8,5.8,0,0,1,2.11,1.1,10.17,10.17,0,0,0-2.15-1,8.4,8.4,0,0,0-2.82-.3,7.71,7.71,0,0,0-3.63,1.15l-.16.1,0-.18a9.63,9.63,0,0,0-5.22-6,9.51,9.51,0,0,0-9.79,1.35l-.15.13-.14-.14A9.44,9.44,0,0,0,229.3,256l0,.22h-.22a9.65,9.65,0,0,0-5.19,1.87,7.93,7.93,0,0,0-3.07,4.69l-.05.24-.26-.31c22.1,0,41.45.05,52.05.12l-.14.11a7.73,7.73,0,0,0-.16-3.81,8.12,8.12,0,0,0-1.25-2.54A10,10,0,0,0,269.35,254.85Z" style="fill:#263238"></path></g><g id="freepik--Icons--inject-2"><path d="M690.61,250.39h0A19.11,19.11,0,0,1,681.29,225h0a19.11,19.11,0,0,1,25.37-9.32h0A19.12,19.12,0,0,1,716,241.06h0A19.12,19.12,0,0,1,690.61,250.39Z" style="fill:#fff"></path><path d="M690.61,250.39a1,1,0,0,1,.3.09l.85.32a9.08,9.08,0,0,0,1.41.45,14.45,14.45,0,0,0,2,.46,18.43,18.43,0,0,0,5.47.18,19,19,0,0,0,6.9-2.14A18.6,18.6,0,0,0,714,244a19,19,0,0,0,3.41-9.35,18,18,0,0,0-.33-5.41,22.35,22.35,0,0,0-.76-2.71,21.7,21.7,0,0,0-1.21-2.59,18.78,18.78,0,0,0-20.24-9.36,21.65,21.65,0,0,0-2.76.76,20.39,20.39,0,0,0-2.55,1.18,17.86,17.86,0,0,0-4.34,3.25,19,19,0,0,0-4.92,8.65,18.8,18.8,0,0,0-.15,8.71,19.06,19.06,0,0,0,2.84,6.64,18.34,18.34,0,0,0,3.68,4.05A13.41,13.41,0,0,0,688.3,249a10.73,10.73,0,0,0,1.26.78l.79.44c.18.1.27.16.26.17a1.1,1.1,0,0,1-.28-.12l-.82-.4a8.83,8.83,0,0,1-1.29-.74,12.36,12.36,0,0,1-1.65-1.16,17.89,17.89,0,0,1-3.8-4.05,19.25,19.25,0,0,1-2.87-15.61,19.42,19.42,0,0,1,5-8.89,18.31,18.31,0,0,1,4.44-3.35,20.83,20.83,0,0,1,2.62-1.21,22.33,22.33,0,0,1,2.83-.79,19.26,19.26,0,0,1,20.79,9.61,22.08,22.08,0,0,1,1.23,2.67,21.7,21.7,0,0,1,.77,2.78,18.31,18.31,0,0,1,.33,5.55,19.19,19.19,0,0,1-10.25,15.4,19.28,19.28,0,0,1-7,2.1,18.18,18.18,0,0,1-5.54-.28,13,13,0,0,1-2-.5,8,8,0,0,1-1.39-.51l-.84-.36A1.85,1.85,0,0,1,690.61,250.39Z" style="fill:#263238"></path><path d="M700.23,233.55a4.68,4.68,0,0,0,4.36-2.76,4.42,4.42,0,1,0-8-3.74,4.7,4.7,0,0,0,.71,5.16c-6.58-1.92-9.39,4.9-9.39,4.9l14.51,6.79S705.9,237.29,700.23,233.55Z" style="fill:#7942C8"></path><path d="M511.87,238.53h0a23.18,23.18,0,0,1-32.67-2.6h0a23.18,23.18,0,0,1,2.6-32.67h0a23.17,23.17,0,0,1,32.67,2.59h0A23.18,23.18,0,0,1,511.87,238.53Z" style="fill:#fff"></path><path d="M511.87,238.53l.26-.28.78-.78.58-.56c.21-.22.41-.48.64-.74a17.93,17.93,0,0,0,1.5-1.92,22.32,22.32,0,0,0,3-5.94,23.09,23.09,0,0,0,1.15-8.69,22.79,22.79,0,0,0-3-10.14,23.08,23.08,0,0,0-8.59-8.51,22.78,22.78,0,0,0-2.94-1.42,24.65,24.65,0,0,0-3.2-1,26.59,26.59,0,0,0-3.37-.54,25.28,25.28,0,0,0-3.48,0,22.24,22.24,0,0,0-6.93,1.6,24.18,24.18,0,0,0-6.27,3.79,24.69,24.69,0,0,0-4.74,5.59,22.47,22.47,0,0,0-2.68,6.59,25.67,25.67,0,0,0-.56,3.44,24.25,24.25,0,0,0,0,3.41,21.12,21.12,0,0,0,1.39,6.44A22.93,22.93,0,0,0,492,243.34a23.13,23.13,0,0,0,8.76.23,22,22,0,0,0,6.33-2,17.13,17.13,0,0,0,2.14-1.18c.3-.18.58-.34.83-.51l.65-.48.89-.65a1.71,1.71,0,0,1,.31-.21l-.28.25-.86.69-.63.51c-.25.17-.53.34-.83.53a15,15,0,0,1-2.13,1.23,22,22,0,0,1-6.37,2.12,23.25,23.25,0,0,1-25.84-14.77,24,24,0,0,1-1-3.19,23.7,23.7,0,0,1-.47-3.38,27.08,27.08,0,0,1,0-3.49,26.45,26.45,0,0,1,.57-3.51,22.89,22.89,0,0,1,2.74-6.75,23.23,23.23,0,0,1,11.26-9.59,22.63,22.63,0,0,1,7.08-1.63,24.89,24.89,0,0,1,3.56,0,26,26,0,0,1,3.44.56,23.78,23.78,0,0,1,3.27,1,25.22,25.22,0,0,1,3,1.46,23.52,23.52,0,0,1,8.72,8.72,23.27,23.27,0,0,1,1.77,19.13,21.69,21.69,0,0,1-3.1,6,15.9,15.9,0,0,1-1.54,1.91c-.24.26-.45.52-.66.73l-.6.55-.82.74Z" style="fill:#263238"></path><path d="M498.21,219.4a5.67,5.67,0,0,0-.83-6.2,5.35,5.35,0,1,0-8.16,6.89,5.67,5.67,0,0,0,6,1.83c-5.45,6.28.63,12.83.63,12.83l14.84-12.54S505.21,215.06,498.21,219.4Z" style="fill:#7942C8"></path><circle cx="595.59" cy="304.09" r="14.23" transform="translate(-40.58 510.21) rotate(-45)" style="fill:#fff"></circle><path d="M609.82,304.09a24.92,24.92,0,0,0-.54-3.45,14.2,14.2,0,0,0-5.19-7.72,14,14,0,0,0-13.27-2,14.05,14.05,0,0,0-6.48,4.88,13.92,13.92,0,0,0,0,16.52,13.45,13.45,0,0,0,3,3,13.18,13.18,0,0,0,3.53,1.91,14.22,14.22,0,0,0,7.36.63,14.21,14.21,0,0,0,11.1-10.32,24.92,24.92,0,0,0,.54-3.45.6.6,0,0,1,0,.23V305a6.82,6.82,0,0,1-.09,1.1,11.17,11.17,0,0,1-.26,1.49,14,14,0,0,1-1.54,3.84,14.39,14.39,0,0,1-9.68,6.85,14.48,14.48,0,0,1-7.6-.6,13.57,13.57,0,0,1-3.67-2,13.76,13.76,0,0,1-3.07-3.07,14.4,14.4,0,0,1,0-17.12,14.47,14.47,0,0,1,6.74-5,14.48,14.48,0,0,1,7.6-.6,14.15,14.15,0,0,1,6,2.73,14.3,14.3,0,0,1,3.63,4.12,13.71,13.71,0,0,1,1.54,3.84,10.9,10.9,0,0,1,.26,1.49,6.82,6.82,0,0,1,.09,1.1c0,.27,0,.49,0,.68A.6.6,0,0,1,609.82,304.09Z" style="fill:#263238"></path><path d="M589.45,303.33a3.81,3.81,0,0,1,.85-2.13,3.67,3.67,0,0,1,1.83-1.3,3,3,0,0,1,3.35,1.32,2.86,2.86,0,0,1,.82-1,2.94,2.94,0,0,1,2.27-.59,3.56,3.56,0,0,1,2,1.05,3.77,3.77,0,0,1,1.11,2,4.64,4.64,0,0,1-.4,2.89,6.64,6.64,0,0,1-2.12,2.26c-1.42,1-3.29,2.21-3.29,2.21s-1.72-1.12-3.25-1.92a6.55,6.55,0,0,1-2.39-2A4.65,4.65,0,0,1,589.45,303.33Z" style="fill:#7942C8"></path><circle cx="59.92" cy="258.61" r="26.62" transform="translate(-106.11 51.48) rotate(-25.67)" style="fill:#fff"></circle><path d="M86.55,258.61a2,2,0,0,1,0-.43l-.09-1.26-.06-.93c0-.34-.11-.71-.17-1.11a19.36,19.36,0,0,0-.56-2.74,25.55,25.55,0,0,0-3-7,26.4,26.4,0,0,0-31.72-11.26,26.87,26.87,0,0,0-3.44,1.52,26.48,26.48,0,0,0-3.24,2.07,29.87,29.87,0,0,0-3,2.55A29.38,29.38,0,0,0,38.69,243a25.57,25.57,0,0,0-3.77,7.26,26.13,26.13,0,0,0,0,16.64,25.63,25.63,0,0,0,3.77,7.27,29.07,29.07,0,0,0,2.58,3.05,29.87,29.87,0,0,0,3,2.55,27.81,27.81,0,0,0,3.24,2.08,26.8,26.8,0,0,0,3.44,1.51,26.46,26.46,0,0,0,31.72-11.26,25.63,25.63,0,0,0,3-7,19.36,19.36,0,0,0,.56-2.74c.06-.41.13-.77.17-1.11l.06-.93L86.5,259a2.14,2.14,0,0,1,0-.43,2.35,2.35,0,0,1,0,.43l0,1.27,0,.94c0,.34-.09.71-.15,1.12a18.06,18.06,0,0,1-.52,2.77,25.07,25.07,0,0,1-2.9,7.14,26.95,26.95,0,0,1-35.64,10A27.48,27.48,0,0,1,44,280.2a31.06,31.06,0,0,1-3.06-2.59,31.53,31.53,0,0,1-2.63-3.11,25.61,25.61,0,0,1-3.85-7.41,26.56,26.56,0,0,1,0-17,26.11,26.11,0,0,1,3.85-7.41,30.31,30.31,0,0,1,2.64-3.11A28.52,28.52,0,0,1,44,237a27.57,27.57,0,0,1,3.3-2.12,28.34,28.34,0,0,1,3.5-1.53,26.81,26.81,0,0,1,14.11-1.13,26.79,26.79,0,0,1,18,12.69,25,25,0,0,1,2.9,7.15,17.85,17.85,0,0,1,.52,2.77c.06.4.12.77.15,1.12l0,.93,0,1.27A2.3,2.3,0,0,1,86.55,258.61Z" style="fill:#263238"></path><path d="M48.44,257.18a7.15,7.15,0,0,1,1.59-4,6.82,6.82,0,0,1,3.42-2.42,5.55,5.55,0,0,1,6.26,2.46,5.59,5.59,0,0,1,1.53-1.88,5.68,5.68,0,0,1,4.27-1.12,7,7,0,0,1,3.7,2A7.2,7.2,0,0,1,71.28,256a8.7,8.7,0,0,1-.74,5.39,12.3,12.3,0,0,1-4,4.23c-2.65,1.83-6.16,4.14-6.16,4.14s-3.21-2.1-6.08-3.59a12.34,12.34,0,0,1-4.47-3.69A8.74,8.74,0,0,1,48.44,257.18Z" style="fill:#7942C8"></path><path d="M375.24,141.11h0a14.74,14.74,0,0,1-5.2-20.19h0a14.76,14.76,0,0,1,20.19-5.21h0a14.75,14.75,0,0,1,5.21,20.2h0A14.75,14.75,0,0,1,375.24,141.11Z" style="fill:#fff"></path><path d="M375.24,141.12a28.27,28.27,0,0,0,3.37,1.33,14.73,14.73,0,0,0,9.62-.56A14.5,14.5,0,0,0,397,131.08a13.42,13.42,0,0,0,.16-4.16,13.65,13.65,0,0,0-1.09-4.2A14.45,14.45,0,0,0,381.29,114a13.87,13.87,0,0,0-4.21,1.07,13.34,13.34,0,0,0-3.56,2.16,14.47,14.47,0,0,0-5.23,12.88,14.75,14.75,0,0,0,4.16,8.7,25.85,25.85,0,0,0,2.79,2.3L375,141l-.6-.37a7.23,7.23,0,0,1-.94-.66,9.27,9.27,0,0,1-1.18-1,13.67,13.67,0,0,1-2.62-3.4,14.92,14.92,0,0,1-1-12.24,15,15,0,0,1,4.53-6.46,14.38,14.38,0,0,1,3.68-2.24,14.08,14.08,0,0,1,4.35-1.12,14.88,14.88,0,0,1,15.27,9,14.8,14.8,0,0,1,.94,8.65,14.88,14.88,0,0,1-9.08,11.06,14.78,14.78,0,0,1-5.58,1.06,13.9,13.9,0,0,1-4.24-.65,10.21,10.21,0,0,1-1.47-.54,6.63,6.63,0,0,1-1-.5l-.61-.35Z" style="fill:#263238"></path><path d="M383.92,128.93a3.6,3.6,0,0,0,3.56-1.78,3.41,3.41,0,1,0-5.84-3.49,3.64,3.64,0,0,0,.15,4c-4.9-2-7.59,3-7.59,3l10.62,6.34S388,132.24,383.92,128.93Z" style="fill:#7942C8"></path></g><g id="freepik--character-3--inject-2"><circle cx="618.37" cy="99.91" r="35.63" transform="translate(21.43 289.72) rotate(-26.82)" style="fill:#fff"></circle><path d="M633,88.57a9.56,9.56,0,0,0-3.14-6.7,12.07,12.07,0,0,0-7.69-2.82A25.35,25.35,0,0,0,614,80.38a12.69,12.69,0,0,0-4.24,1.94A17.89,17.89,0,0,0,604.14,90a31.49,31.49,0,0,0-.65,10.28,5.09,5.09,0,0,0,1.69,2.45,19.62,19.62,0,0,0,2.79,6.33c.88-1.38,1.75-2.77,2.62-4.15Z" style="fill:#263238"></path><path d="M632.39,85.51l-4.24-1.84c1.06,6.32-1.38,19.63-1.43,26,2.18-2,7.66-8.29,8.13-11.2S637.75,86.25,632.39,85.51Z" style="fill:#263238"></path><path d="M609.19,90.14a7.76,7.76,0,0,1,7.31-5.61l10.78-.2c4.51.57,6.17,6.67,5.42,11.15-.83,5-1.86,10.19-3.29,13.72-2.89,7.09-8.75,6.71-8.75,6.71s-.82,3.5-1.33,5.64l-4.18,9.13-12-9.27,6-31.18C609.17,90.1,609.13,90.31,609.19,90.14Z" style="fill:#ffbf9d"></path><path d="M628.88,101a1,1,0,0,1-1.13.74.93.93,0,0,1-.78-1.07,1,1,0,0,1,1.14-.74A.92.92,0,0,1,628.88,101Z" style="fill:#263238"></path><path d="M630.92,98.1c-.15.09-.74-.6-1.76-.84s-1.87.1-2-.05.13-.26.51-.42a2.69,2.69,0,0,1,1.61-.11,2.55,2.55,0,0,1,1.36.82C630.94,97.81,631,98.06,630.92,98.1Z" style="fill:#263238"></path><path d="M619.81,98.55a1,1,0,0,1-1.14.74.92.92,0,0,1-.77-1.08,1,1,0,0,1,1.13-.74A.94.94,0,0,1,619.81,98.55Z" style="fill:#263238"></path><path d="M621.28,95.83c-.15.09-.74-.6-1.76-.84s-1.88.1-2,0,.13-.26.51-.42a2.68,2.68,0,0,1,1.61-.11,2.55,2.55,0,0,1,1.36.81C621.29,95.54,621.35,95.78,621.28,95.83Z" style="fill:#263238"></path><path d="M622.57,104.55a6.82,6.82,0,0,1,1.72.09c.27,0,.52,0,.61-.13a1.44,1.44,0,0,0,0-.81l-.31-2.16a35.39,35.39,0,0,1-.52-5.56,34.89,34.89,0,0,1,1,5.51q.13,1.13.27,2.16a1.5,1.5,0,0,1-.11,1,.65.65,0,0,1-.51.28,2.07,2.07,0,0,1-.46,0A6.92,6.92,0,0,1,622.57,104.55Z" style="fill:#263238"></path><path d="M611.52,111s1.21,5.62,8.73,6.65l.41-1.73A19.1,19.1,0,0,1,611.52,111Z" style="fill:#ff9a6c"></path><path d="M621.82,92.08c-.16.26-1.15-.11-2.37-.25s-2.27,0-2.37-.32c0-.13.19-.35.64-.53a3.91,3.91,0,0,1,1.86-.2,4.06,4.06,0,0,1,1.75.63C621.73,91.69,621.9,92,621.82,92.08Z" style="fill:#263238"></path><path d="M631.32,94.91c-.23.19-.88-.21-1.72-.42s-1.59-.2-1.69-.48.12-.34.48-.49a2.52,2.52,0,0,1,1.49,0,2.46,2.46,0,0,1,1.26.78C631.38,94.56,631.42,94.82,631.32,94.91Z" style="fill:#263238"></path><path d="M632.29,88.29a3.32,3.32,0,0,0-2.43-2.51,6.52,6.52,0,0,0-3.63.19c-5,1.5-8.67,7.09-13.61,8.69-1.22.39-2.47-.53-3.57.11a3.22,3.22,0,0,0-1.79,3.13,10.72,10.72,0,0,1-.9-2.9,3.56,3.56,0,0,1,.8-2.84c.52-.56,1.3-.9,1.66-1.58a9.92,9.92,0,0,0,.39-2,4.35,4.35,0,0,1,1.12-1.72,19.58,19.58,0,0,1,8.78-5.74A12.75,12.75,0,0,1,626,81a9.77,9.77,0,0,1,5.56,3.88c.76,1.14,1.56,2.31.77,3.42" style="fill:#263238"></path><path d="M608.94,95.71c0-.23-3.54-2.52-4.55,1.55s3.19,4.11,3.23,4S608.94,95.71,608.94,95.71Z" style="fill:#ffbf9d"></path><path d="M606.77,99.46s-.08,0-.21.06a.73.73,0,0,1-.52-.12,1.73,1.73,0,0,1-.41-1.72,2.33,2.33,0,0,1,.43-.94.83.83,0,0,1,.65-.4.35.35,0,0,1,.36.29c0,.12,0,.19,0,.21s.1,0,.11-.22a.51.51,0,0,0-.09-.29.55.55,0,0,0-.36-.19,1,1,0,0,0-.87.44,2.42,2.42,0,0,0-.51,1,1.82,1.82,0,0,0,.59,1.95.73.73,0,0,0,.65.05C606.74,99.56,606.78,99.47,606.77,99.46Z" style="fill:#ff9a6c"></path><path d="M607.84,93.3a1.08,1.08,0,0,0,.27-.08c.18-.06.44-.13.77-.26a14.12,14.12,0,0,0,2.59-1.44,38.5,38.5,0,0,0,3.42-2.79,31.51,31.51,0,0,1,4.23-3.3,13.13,13.13,0,0,1,2.5-1.17,10.56,10.56,0,0,1,2.53-.49,11.38,11.38,0,0,1,4.32.47,11.09,11.09,0,0,1,2.68,1.21c.3.18.52.35.67.45s.23.16.24.15a2.08,2.08,0,0,0-.22-.18c-.15-.11-.35-.29-.65-.48a10.84,10.84,0,0,0-2.68-1.28,11.8,11.8,0,0,0-4.38-.52,10.83,10.83,0,0,0-2.56.5A12.73,12.73,0,0,0,619,85.27a31.94,31.94,0,0,0-4.24,3.34,42,42,0,0,1-3.38,2.8,15.4,15.4,0,0,1-2.55,1.48c-.32.14-.58.23-.75.3Z" style="fill:#fff"></path><path d="M608.57,94.66a6.39,6.39,0,0,0-.36,3.28,2.15,2.15,0,0,0,2.45,1.71c.87-.26,1.33-1.19,1.67-2,1-2.43,1.74-5,2.73-7.37Z" style="fill:#263238"></path><path d="M631.76,86.17s-.34-.15-1-.32a7.12,7.12,0,0,0-2.73-.14,10,10,0,0,0-1.85.46,20.09,20.09,0,0,0-2,.9,21.32,21.32,0,0,0-4.16,2.79c-.67.59-1.28,1.21-1.93,1.77a9.89,9.89,0,0,1-2,1.41,18,18,0,0,1-3.87,1.45c-1.14.3-2.08.48-2.72.6l-.75.13-.26,0a.76.76,0,0,1,.25-.08l.74-.17c.64-.15,1.57-.35,2.7-.66A18.83,18.83,0,0,0,616,92.86a10.17,10.17,0,0,0,2-1.4c.63-.55,1.24-1.17,1.92-1.77a20.64,20.64,0,0,1,4.22-2.81,19.34,19.34,0,0,1,2-.89,9.65,9.65,0,0,1,1.89-.44,6.72,6.72,0,0,1,2.78.22,4.71,4.71,0,0,1,.7.27A1.31,1.31,0,0,1,631.76,86.17Z" style="fill:#455a64"></path><path d="M609,92.18a1.53,1.53,0,0,1-.41.16l-1.14.35-.38.12a1.42,1.42,0,0,1-.47,0,.47.47,0,0,1-.25-.13.33.33,0,0,1-.09-.3.87.87,0,0,1,.31-.45l1.6-1.59.12.18a3.94,3.94,0,0,1-1.42.33,4.43,4.43,0,0,1-1.46-.16,1.26,1.26,0,0,1-.34-.15.49.49,0,0,1-.25-.34.44.44,0,0,1,.16-.38,2.17,2.17,0,0,1,.29-.2,9,9,0,0,0,1.75-1.38,13.74,13.74,0,0,0,1.29-1.63,2.19,2.19,0,0,1-.25.51,7.86,7.86,0,0,1-.92,1.23,8.35,8.35,0,0,1-1.76,1.45c-.18.11-.37.23-.34.37s.23.25.44.3a4.18,4.18,0,0,0,1.38.16,4,4,0,0,0,1.34-.32l.56-.23-.43.42-1.63,1.57a.78.78,0,0,0-.26.34.2.2,0,0,0,.19.23,2.32,2.32,0,0,0,.78-.13l1.16-.29A2.74,2.74,0,0,1,609,92.18Z" style="fill:#fff"></path><path d="M618.27,105.51a1.35,1.35,0,0,1,1.6-.68,1.4,1.4,0,0,1,.89,1,1.74,1.74,0,0,1-.25,1.33l0,.09a1.55,1.55,0,0,1-1.79,0A1.46,1.46,0,0,1,618.27,105.51Z" style="fill:#ff9a6c"></path><path d="M621.2,107.46c0-.15-1-.35-1.58-1.37s-.25-2.11-.4-2.15-.25.21-.34.68a2.64,2.64,0,0,0,.27,1.78,2.28,2.28,0,0,0,1.33,1.08C620.91,107.6,621.19,107.53,621.2,107.46Z" style="fill:#263238"></path><path d="M631,127.18a21.39,21.39,0,0,0-4.43-4l-6.82-3.42a8,8,0,0,1-8.93,2.56,10.34,10.34,0,0,1-6.62-7s-9.66-1.25-16.71,2.49A35.78,35.78,0,0,0,634.11,132,43,43,0,0,0,631,127.18Z" style="fill:#455a64"></path><path d="M584.1,108.93s.07.18.19.55.3.92.53,1.62c.11.36.24.76.38,1.19s.37.89.59,1.4a25.62,25.62,0,0,0,1.63,3.4,34.5,34.5,0,0,0,6.17,8.23A35.76,35.76,0,0,0,621,135.66a33.46,33.46,0,0,0,4.5-.6c.75-.16,1.51-.28,2.27-.48l2.25-.7c.38-.12.76-.22,1.13-.36l1.11-.47c.74-.32,1.49-.61,2.23-1a37.56,37.56,0,0,0,4.25-2.51,35.88,35.88,0,0,0,4-3.12c.63-.58,1.21-1.21,1.82-1.82a17.74,17.74,0,0,0,1.72-2,40.53,40.53,0,0,0,3.07-4.32,39.57,39.57,0,0,0,2.37-4.85,34.68,34.68,0,0,0,2.53-10.75,38.22,38.22,0,0,0-1-11.33A37.84,37.84,0,0,0,648.77,81l-1.58-2.32-1.79-2.13a8.24,8.24,0,0,0-.94-1l-1-1-1-1-1.06-.86a40.11,40.11,0,0,0-4.39-3.15,41,41,0,0,0-4.76-2.33,16.67,16.67,0,0,0-2.44-.91c-.83-.25-1.64-.53-2.47-.74a36.5,36.5,0,0,0-5-.84,37.36,37.36,0,0,0-4.94-.19c-.82,0-1.62.15-2.42.21l-1.2.12c-.39,0-.78.14-1.17.21l-2.31.46c-.76.18-1.49.45-2.23.66a31.68,31.68,0,0,0-4.24,1.61A35.75,35.75,0,0,0,584.66,90a34,34,0,0,0-1.52,10.18,25.38,25.38,0,0,0,.18,3.76c0,.55.08,1,.14,1.51s.17.86.24,1.23c.13.72.23,1.28.31,1.68s.09.57.09.57-.06-.19-.14-.56-.21-1-.36-1.67c-.08-.37-.17-.78-.26-1.23s-.11-1-.17-1.51a24.94,24.94,0,0,1-.24-3.78,34,34,0,0,1,1.45-10.27,36,36,0,0,1,19.31-22.45A33.4,33.4,0,0,1,608,65.81c.74-.21,1.48-.48,2.25-.67l2.34-.47c.4-.07.79-.17,1.19-.22l1.21-.12c.81-.07,1.62-.18,2.45-.22a40.23,40.23,0,0,1,5,.18,39,39,0,0,1,5.06.84c.85.22,1.67.5,2.51.75a18.47,18.47,0,0,1,2.48.92,39.14,39.14,0,0,1,4.83,2.36,41.09,41.09,0,0,1,4.45,3.18l1.08.88,1,1,1,1a8.49,8.49,0,0,1,1,1l1.81,2.16,1.61,2.35a35.69,35.69,0,0,1,5.58,22.08,34.81,34.81,0,0,1-2.57,10.9,40.69,40.69,0,0,1-2.4,4.92A42,42,0,0,1,646.7,123a18.45,18.45,0,0,1-1.75,2c-.62.61-1.21,1.26-1.85,1.84A36.9,36.9,0,0,1,639,130a39.35,39.35,0,0,1-4.32,2.54c-.74.35-1.51.64-2.25,1l-1.13.47c-.37.15-.76.24-1.15.37l-2.28.7c-.76.2-1.54.32-2.3.48a32.58,32.58,0,0,1-4.55.59,36,36,0,0,1-27.67-10.56,33.94,33.94,0,0,1-6.15-8.35,25.33,25.33,0,0,1-1.6-3.43c-.2-.51-.41-1-.57-1.41s-.25-.85-.35-1.21c-.21-.7-.37-1.25-.48-1.64S584.1,108.93,584.1,108.93Z" style="fill:#263238"></path></g><g id="freepik--character-2--inject-2"><circle cx="615.2" cy="217.73" r="51.87" transform="translate(26.23 498.78) rotate(-45)" style="fill:#fff"></circle><path d="M639.72,214.27c-.29-4.91.14-9.86-.39-14.75s-2.19-9.91-5.86-13.18-9.71-4.2-13.51-1.08l-.53,4.24q4.38,28.22,8.74,56.43a19.61,19.61,0,0,0,2.08,7.16c1.29,2.14,3.69,3.82,6.17,3.49,3.24-.43,5.14-3.89,5.94-7.06C645.23,238,640.42,226.11,639.72,214.27Z" style="fill:#263238"></path><path d="M626.12,189.66a13.58,13.58,0,0,0-2.74-3.2,4.66,4.66,0,0,0-4-1,1.93,1.93,0,0,0-1.45,1.22c-.18.65.35,1.45,1,1.35l.15.11c1.56,1.19,3.14,2.36,4.75,3.49a3.67,3.67,0,0,0,1.31.69,1.34,1.34,0,0,0,1.35-.39C627.05,191.26,626.58,190.34,626.12,189.66Z" style="fill:#7942C8"></path><path d="M629.23,194.28a24.81,24.81,0,0,0-19.85-8.19c-4.37.24-6.1,1.27-9.18,2.34a13.82,13.82,0,0,0-7.48,5.74A23.12,23.12,0,0,0,589,205a63.9,63.9,0,0,0,.27,11.9,21.69,21.69,0,0,0,4.49,10.88l10.18,1c5.57-.21,11.22-.42,16.54-2.07s10.38-4.94,12.94-9.88C636.94,210,634.55,199.91,629.23,194.28Z" style="fill:#263238"></path><path d="M605.12,246.7c-.18-3.54-.37-8-.37-7.95s-8.27-.33-11.28-10.68c-1.49-5.15-2.32-13.8-2.76-20.9-.4-6.38,4.42-15.46,12.3-16l3.48-.65,13.79,4.38a3.75,3.75,0,0,1,3.8,3.35l3.77,46.2-7.58,15-16.22-10.83Z" style="fill:#cc6760"></path><path d="M609.07,224.49a2.25,2.25,0,0,0-.87-1.32,2.3,2.3,0,0,0-2.79,0,3.05,3.05,0,0,0-1,2.95h0a2.78,2.78,0,0,0,2.08,1,2.3,2.3,0,0,0,.37,0,2.45,2.45,0,0,0,1.64-.78A2.24,2.24,0,0,0,609.07,224.49Z" style="fill:#9d4941"></path><path d="M595.52,215.07a1.36,1.36,0,0,0,1.48,1.2,1.3,1.3,0,0,0,1.24-1.39,1.37,1.37,0,0,0-1.48-1.21A1.31,1.31,0,0,0,595.52,215.07Z" style="fill:#263238"></path><path d="M593.36,210.55c.19.16,1.12-.73,2.58-.91s2.62.41,2.76.21-.15-.38-.66-.66a3.72,3.72,0,0,0-2.23-.39,3.54,3.54,0,0,0-2,.94C593.38,210.14,593.27,210.48,593.36,210.55Z" style="fill:#263238"></path><path d="M603.58,221.37a9.15,9.15,0,0,0-2.42-.13c-.38,0-.74,0-.83-.27a1.89,1.89,0,0,1,.1-1.14q.36-1.41.75-3c1-4.23,1.71-7.69,1.54-7.73s-1.14,3.36-2.16,7.59c-.24,1-.47,2-.7,3a2.24,2.24,0,0,0,0,1.49.93.93,0,0,0,.68.47,2.28,2.28,0,0,0,.64,0A9.61,9.61,0,0,0,603.58,221.37Z" style="fill:#263238"></path><path d="M604.75,238.75a27.11,27.11,0,0,0,13.67-5.56s-2.84,7.8-13.54,8.14Z" style="fill:#9d4941"></path><path d="M608,221.83c-.24,0,0,1.6-1.26,2.9s-2.92,1.33-2.9,1.55.41.26,1.13.19a4,4,0,0,0,2.43-1.21,3.49,3.49,0,0,0,1-2.41C608.33,222.18,608.11,221.81,608,221.83Z" style="fill:#263238"></path><path d="M593.5,205.39c.29.32,1.38,0,2.69-.11s2.45.15,2.69-.21c.11-.17-.08-.5-.57-.8a4,4,0,0,0-2.21-.48,3.86,3.86,0,0,0-2.13.74C593.51,204.88,593.37,205.23,593.5,205.39Z" style="fill:#263238"></path><path d="M612.15,213.54A1.37,1.37,0,0,1,611,215a1.32,1.32,0,0,1-1.51-1.11,1.37,1.37,0,0,1,1.19-1.49A1.32,1.32,0,0,1,612.15,213.54Z" style="fill:#263238"></path><path d="M613.13,208.58c-.15.2-1.25-.48-2.71-.34s-2.47,1-2.65.79.06-.41.5-.79a3.68,3.68,0,0,1,2.1-.85,3.6,3.6,0,0,1,2.18.49C613,208.19,613.21,208.5,613.13,208.58Z" style="fill:#263238"></path><path d="M611.92,204c-.26.35-1.42.11-2.78.21s-2.49.45-2.78.12c-.13-.16,0-.5.49-.86a4.43,4.43,0,0,1,4.48-.28C611.84,203.45,612,203.78,611.92,204Z" style="fill:#263238"></path><path d="M623.51,216.15c-.09-.79.58-2.76,1.34-3,2-.59,5.8-.89,6.5,4.37.95,7.2-6.47,6.67-6.51,6.47S623.85,218.87,623.51,216.15Z" style="fill:#cc6760"></path><path d="M626.48,221.13s.14.07.36.14a1.31,1.31,0,0,0,.94-.11,3.15,3.15,0,0,0,1.07-3,4.17,4.17,0,0,0-.59-1.75,1.47,1.47,0,0,0-1.07-.84.65.65,0,0,0-.7.44c-.07.22,0,.35,0,.37s-.17-.1-.15-.4a.79.79,0,0,1,.22-.49,1,1,0,0,1,.67-.28,1.8,1.8,0,0,1,1.46.94,4.38,4.38,0,0,1,.7,1.95c.15,1.46-.42,2.91-1.42,3.35a1.35,1.35,0,0,1-1.17,0C626.51,221.3,626.45,221.14,626.48,221.13Z" style="fill:#9d4941"></path><path d="M625.15,213.18l-1.7,2c-8.47-7-25.31-24.94-24.37-23.87a23.15,23.15,0,0,1,11.25-2c6,.59,17.36,2.75,17.68,9.71S625.15,213.18,625.15,213.18Z" style="fill:#263238"></path><path d="M635.54,210.84a1.48,1.48,0,0,0-.14-.41,6.93,6.93,0,0,0-.57-1.11,10.38,10.38,0,0,0-3.26-3.18,19.67,19.67,0,0,0-6.29-2.5c-2.48-.62-5.25-1-8-2a35.46,35.46,0,0,1-7.43-3.49,37.35,37.35,0,0,1-5.35-4.05,41.94,41.94,0,0,1-3.16-3.25l-.79-.95a4.05,4.05,0,0,0-.3-.32,1.6,1.6,0,0,0,.24.37c.16.22.4.57.74,1a33.25,33.25,0,0,0,3.09,3.35A34.93,34.93,0,0,0,617.16,202a78.56,78.56,0,0,0,8,2,20,20,0,0,1,6.23,2.39,10.92,10.92,0,0,1,3.28,3C635.3,210.29,635.51,210.85,635.54,210.84Z" style="fill:#455a64"></path><path d="M633.52,212.12a3.87,3.87,0,0,0-.39-1.56,7.51,7.51,0,0,0-3-3.21,16.53,16.53,0,0,0-6.2-1.94,35.42,35.42,0,0,1-7.66-1.84,32.13,32.13,0,0,1-11.88-7.84,32.65,32.65,0,0,1-2.8-3.33l-.69-1c-.16-.22-.24-.33-.26-.32a1.79,1.79,0,0,0,.2.36l.63,1a30.5,30.5,0,0,0,2.73,3.42,31.27,31.27,0,0,0,11.94,8,34.2,34.2,0,0,0,7.74,1.84,16.5,16.5,0,0,1,6.11,1.83,7.51,7.51,0,0,1,3,3A9.23,9.23,0,0,1,633.52,212.12Z" style="fill:#455a64"></path><path d="M625.78,225.43c0-.05.6-.17,1.65-.53a10.44,10.44,0,0,0,3.89-2.54,14.64,14.64,0,0,0,3.35-6,25.43,25.43,0,0,0,1-8.45,21.93,21.93,0,0,0-.66-4.36,20.35,20.35,0,0,0-5.64-9.4,34.06,34.06,0,0,0-5.15-3.89,2,2,0,0,1,.42.18c.26.14.66.32,1.14.62a22,22,0,0,1,3.83,2.85,20.45,20.45,0,0,1,4.31,5.61,21.37,21.37,0,0,1,1.54,3.91,20.77,20.77,0,0,1,.68,4.46,25,25,0,0,1-1,8.6,14.66,14.66,0,0,1-3.53,6.12,10,10,0,0,1-4.07,2.49,8.94,8.94,0,0,1-1.26.29A1.3,1.3,0,0,1,625.78,225.43Z" style="fill:#455a64"></path><path d="M648.35,246.36c-3.47-2-9.14-2-9.14-2l-11.07-.76s-5.45,8.79-13.71,8.76-9.55-5.49-9.55-5.49-13.8,3.26-21.16,12.25c9.38,6.74,20.14,11.07,33.75,10.48,12.15-.16,27.51-6.42,36.84-17.73A19.17,19.17,0,0,0,648.35,246.36Z" style="fill:#7942C8"></path><path d="M666.94,214.07s-.05-.28-.13-.83-.18-1.38-.32-2.45c-.07-.53-.15-1.14-.23-1.8s-.31-1.36-.48-2.14-.37-1.6-.58-2.49a7.63,7.63,0,0,0-.39-1.35c-.15-.46-.31-.94-.48-1.42a49.39,49.39,0,0,0-6.69-13.34,51.75,51.75,0,0,0-14.15-13.71l-2.34-1.5c-.82-.46-1.68-.87-2.53-1.31s-1.7-.94-2.62-1.28l-2.76-1.1-1.41-.55-1.47-.42-3-.85c-1-.25-2-.39-3.09-.6a25.78,25.78,0,0,0-3.17-.48,49.2,49.2,0,0,0-6.57-.3c-1.11,0-2.24,0-3.37.11l-3.39.42c-.57.08-1.15.11-1.72.23l-1.7.39c-1.13.27-2.28.48-3.42.8a55.84,55.84,0,0,0-6.73,2.5l-1.66.75c-.28.13-.56.24-.83.38l-.8.46L587.73,174c-1.05.66-2,1.42-3.08,2.14-.5.37-1,.7-1.52,1.12l-1.43,1.24a56.8,56.8,0,0,0-5.49,5.38L573.79,187l-.6.78-.54.82-1.07,1.66-1.07,1.67-.92,1.77-.91,1.77-.46.9c-.13.3-.25.62-.38.93L566.35,201l-1.12,3.91a51.19,51.19,0,0,0,2.29,32.5c.56,1.24,1.11,2.48,1.67,3.71s1.34,2.34,2,3.51l.51.87.58.82,1.15,1.63,1.16,1.62,1.29,1.5,1.29,1.5.65.74.71.68,2.82,2.69a57.37,57.37,0,0,0,6.2,4.56l1.59,1c.53.34,1.12.59,1.67.89,1.12.56,2.21,1.17,3.34,1.69l3.44,1.37.85.34.88.26,1.76.5a54.21,54.21,0,0,0,7,1.53c1.17.16,2.34.21,3.5.32l1.74.14c.58,0,1.15,0,1.73,0l3.42-.07c1.13-.06,2.24-.25,3.35-.36a48.49,48.49,0,0,0,6.46-1.22,26.54,26.54,0,0,0,3.07-.93c1-.35,2-.63,3-1l2.82-1.26,1.39-.62,1.32-.74,2.58-1.48a27.47,27.47,0,0,0,2.41-1.63c.78-.56,1.58-1.09,2.32-1.66l2.11-1.82a51.49,51.49,0,0,0,12.08-15.56,49.36,49.36,0,0,0,4.74-14.14c.1-.5.19-1,.28-1.47a8.74,8.74,0,0,0,.2-1.4c.08-.91.15-1.76.22-2.55s.15-1.51.17-2.18,0-1.27,0-1.82c0-1.07,0-1.89,0-2.46s0-.85,0-.85,0,.29,0,.84,0,1.4.08,2.47c0,.55,0,1.15.05,1.82s-.1,1.4-.15,2.19-.12,1.65-.19,2.56a8.82,8.82,0,0,1-.19,1.41c-.09.47-.17,1-.27,1.48a49.07,49.07,0,0,1-4.68,14.23,51.69,51.69,0,0,1-12.09,15.71l-2.12,1.84c-.75.58-1.55,1.11-2.33,1.68s-1.56,1.17-2.43,1.65l-2.6,1.49-1.32.75-1.4.63-2.85,1.28c-1,.4-2,.69-3,1a26.9,26.9,0,0,1-3.09.94,49.57,49.57,0,0,1-6.51,1.24c-1.12.12-2.24.31-3.38.38l-3.45.07c-.58,0-1.17.05-1.75,0l-1.75-.14c-1.17-.11-2.36-.16-3.54-.31a55.64,55.64,0,0,1-7.08-1.54l-1.77-.5c-.29-.09-.59-.17-.88-.27l-.87-.34L594,265.31c-1.14-.51-2.24-1.13-3.38-1.7-.55-.3-1.14-.55-1.68-.9l-1.61-1a58.35,58.35,0,0,1-6.26-4.59l-2.85-2.73-.72-.68-.65-.75-1.3-1.51-1.31-1.51L573,248.27l-1.17-1.65-.59-.82-.51-.88-2-3.54c-.56-1.25-1.13-2.5-1.69-3.76a51.68,51.68,0,0,1-2.32-32.81c.39-1.33.77-2.64,1.14-3.95s1-2.54,1.51-3.8c.13-.31.25-.63.38-.94l.47-.9.92-1.79.93-1.79,1.08-1.68,1.08-1.68.54-.83.62-.78c.81-1,1.63-2.07,2.44-3.09a57.85,57.85,0,0,1,5.54-5.43l1.46-1.25c.48-.42,1-.75,1.53-1.13,1-.72,2-1.48,3.11-2.16l3.24-1.85.81-.46c.27-.14.56-.26.84-.38l1.68-.76a54.48,54.48,0,0,1,6.79-2.51c1.15-.32,2.31-.54,3.46-.81l1.71-.38c.57-.12,1.16-.16,1.73-.24l3.43-.41c1.14-.1,2.27-.06,3.39-.1a48.38,48.38,0,0,1,6.63.31,25.84,25.84,0,0,1,3.19.5c1,.2,2.1.35,3.12.61l3,.86,1.48.43,1.42.56,2.78,1.11c.93.35,1.76.87,2.63,1.29s1.72.87,2.55,1.34l2.36,1.52a51.66,51.66,0,0,1,14.18,13.84,49.05,49.05,0,0,1,6.64,13.44c.17.49.32,1,.47,1.43a8.8,8.8,0,0,1,.39,1.37c.19.89.38,1.72.55,2.5s.35,1.49.45,2.15.15,1.27.21,1.81q.18,1.6.27,2.46C666.92,213.79,666.94,214.07,666.94,214.07Z" style="fill:#263238"></path></g><g id="freepik--character-1--inject-2"><circle cx="527.28" cy="124.38" r="33.39" transform="matrix(0.04, -1, 1, 0.04, 384.49, 646.98)" style="fill:#fff"></circle><path d="M520.29,141.51c0-2.09,0-3.82,0-4,0,0-7-.67-7.54-7.63-.24-3.37-.18-10.34-.05-16.65a13,13,0,0,1,12.23-12.71l.67,0c7.28,0,11.35,6.16,11.16,13.44l-.25,27.3-11.77,9.45-.86-.07Z" style="fill:#ffbf9d"></path><path d="M520.27,137.48a16.93,16.93,0,0,0,8.92-3.23s-1.91,5.22-8.9,5Z" style="fill:#ff9a6c"></path><path d="M524.54,116.21c.13.14,1-.5,2.11-.51s2,.56,2.15.41-.07-.32-.45-.59a3,3,0,0,0-1.73-.52,2.84,2.84,0,0,0-1.68.59C524.59,115.88,524.47,116.14,524.54,116.21Z" style="fill:#263238"></path><path d="M525.4,119.39a.94.94,0,0,0,1,.9.9.9,0,0,0,.92-.91.94.94,0,0,0-1-.9A.91.91,0,0,0,525.4,119.39Z" style="fill:#263238"></path><path d="M521.51,124.28a6.32,6.32,0,0,0-1.75-.21c-.28,0-.54,0-.6-.24a1.39,1.39,0,0,1,.13-.82l.69-2.13a36.76,36.76,0,0,0,1.49-5.56,36.67,36.67,0,0,0-1.94,5.43c-.22.74-.44,1.46-.64,2.14a1.52,1.52,0,0,0-.08,1.08.65.65,0,0,0,.47.37,1.6,1.6,0,0,0,.47,0A7.32,7.32,0,0,0,521.51,124.28Z" style="fill:#263238"></path><path d="M525.12,112.47c.11.26,1,.07,2.16.15s2,.33,2.16.08-.11-.36-.48-.6a3.66,3.66,0,0,0-1.63-.48,3.48,3.48,0,0,0-1.67.31C525.26,112.12,525.07,112.34,525.12,112.47Z" style="fill:#263238"></path><path d="M514.18,113.13c.12.21,1,0,2.14,0s2,.13,2.13-.09-.12-.29-.5-.46a3.72,3.72,0,0,0-1.63-.29,3.92,3.92,0,0,0-1.63.37C514.31,112.83,514.13,113,514.18,113.13Z" style="fill:#263238"></path><path d="M536.48,119.08c.12-.06,4.71-1.7,4.84,3.07s-4.69,3.93-4.7,3.79S536.48,119.08,536.48,119.08Z" style="fill:#ffbf9d"></path><path d="M538,124.09s.08.06.23.12a.88.88,0,0,0,.62,0,2.06,2.06,0,0,0,.9-1.87,2.67,2.67,0,0,0-.27-1.19,1,1,0,0,0-.64-.62.42.42,0,0,0-.48.25c-.06.13,0,.22-.06.23s-.1-.07-.07-.27a.56.56,0,0,1,.18-.31.68.68,0,0,1,.46-.13,1.15,1.15,0,0,1,.89.72,2.8,2.8,0,0,1,.32,1.32,2.15,2.15,0,0,1-1.15,2.09.89.89,0,0,1-.77-.1C538,124.2,538,124.1,538,124.09Z" style="fill:#ff9a6c"></path><path d="M523,128.33c0-.12.89-.39,1.56-1.25a5.8,5.8,0,0,0,.68-1.24c.14-.35.25-.56.3-.55s0,.25,0,.63a3.47,3.47,0,0,1-.63,1.39,2.77,2.77,0,0,1-1.23.91C523.25,128.37,523,128.37,523,128.33Z" style="fill:#263238"></path><path d="M542.93,111.44c-1-1.7-1.18-3.71-1.7-5.59s-1.54-3.84-3.37-4.52h0a5,5,0,0,0-5.06.41,6.53,6.53,0,0,0-4.86-5.14,16.1,16.1,0,0,0-8.64.57c-1.8.7-3.55,2.15-5.69,4.3a23,23,0,0,0-2.47,2.92l-2.19,6.47,1.76,3.43a6.44,6.44,0,0,0,.34.7v0l1.54,7.21c.12-2,.07-8.78.2-10.73a10.93,10.93,0,0,0,7.83-3.5c1.08-1.17,1.94-2.64,3.38-3.33,1.86-.89,4-.2,6,.5l-.08-.07a8.6,8.6,0,0,1,2.66,2,27.29,27.29,0,0,0,1,11.5c.18.56.66,1.71,1.2,1.93,1.07.43,1.37-.66,2-1.23a2.81,2.81,0,0,1,2-.45,42,42,0,0,0,1.37-4.94,4.26,4.26,0,0,0,2,.16c-.2-.49-.39-1-.59-1.48a2.29,2.29,0,0,0,.85.4.79.79,0,0,0,.82-.35C543.37,112.22,543.13,111.79,542.93,111.44Z" style="fill:#263238"></path><path d="M530.56,102.52a5.94,5.94,0,0,1,.69.65,5,5,0,0,1,1,2.32,8.92,8.92,0,0,1,.15,1.77c0,.65-.06,1.33-.12,2a17,17,0,0,0-.08,2.28,8.31,8.31,0,0,0,.14,1.21,2.4,2.4,0,0,0,.48,1.17,1,1,0,0,0,1,.35,1.58,1.58,0,0,0,.89-.49,3.6,3.6,0,0,0,.7-1.76h-.15a5.71,5.71,0,0,0,.83,1.47,2.07,2.07,0,0,0,1.34.76,1.34,1.34,0,0,0,.72-.12,1.2,1.2,0,0,0,.5-.47,1.26,1.26,0,0,0,.15-.62.87.87,0,0,0-.22-.54l-.07.06a4.37,4.37,0,0,0,1.48,1.14,3.82,3.82,0,0,0,.46.19c.11,0,.17,0,.17,0l-.16-.07a4.31,4.31,0,0,1-.45-.2,4.71,4.71,0,0,1-1.42-1.16l-.08.07a.88.88,0,0,1,0,1,1.05,1.05,0,0,1-.44.42,1.31,1.31,0,0,1-.65.1,2,2,0,0,1-1.25-.72,5.7,5.7,0,0,1-.8-1.44l-.1-.22,0,.24a3.52,3.52,0,0,1-.66,1.68,1.48,1.48,0,0,1-.8.44.89.89,0,0,1-.83-.29,2.37,2.37,0,0,1-.44-1.1,8.07,8.07,0,0,1-.14-1.18,18.8,18.8,0,0,1,.07-2.27c0-.72.11-1.41.11-2.06a9,9,0,0,0-.18-1.79,4.9,4.9,0,0,0-1.1-2.34A2.71,2.71,0,0,0,530.56,102.52Z" style="fill:#455a64"></path><path d="M509,109s0,0,.05,0l.17.13a2,2,0,0,0,.3.19,2.33,2.33,0,0,0,.42.23,6.08,6.08,0,0,0,3,.58,7.91,7.91,0,0,0,4.22-1.5,13.72,13.72,0,0,0,3.66-4.11c.52-.84.94-1.7,1.41-2.49a9.4,9.4,0,0,1,1.58-2.1,4.79,4.79,0,0,1,2-1.19,3.54,3.54,0,0,1,1.06-.11,4.19,4.19,0,0,1,1,.2,4.17,4.17,0,0,1,2.22,1.92,4.94,4.94,0,0,1,.34,1v-.07l0-.21a3.72,3.72,0,0,0-.26-.79,3.94,3.94,0,0,0-.76-1.07,4.19,4.19,0,0,0-1.47-.94,4.34,4.34,0,0,0-1-.21,3.51,3.51,0,0,0-1.11.1,4.94,4.94,0,0,0-2.09,1.22A9.4,9.4,0,0,0,522,102c-.47.8-.9,1.66-1.41,2.48a13.59,13.59,0,0,1-3.61,4.08,7.78,7.78,0,0,1-4.14,1.5,6.28,6.28,0,0,1-2.94-.51A7.16,7.16,0,0,1,509,109Z" style="fill:#455a64"></path><path d="M513.91,116.51c.13.14.94-.5,2.11-.51s2,.56,2.15.42-.08-.33-.45-.6a2.89,2.89,0,0,0-1.73-.51,2.84,2.84,0,0,0-1.68.58C514,116.18,513.84,116.44,513.91,116.51Z" style="fill:#263238"></path><path d="M515.69,119.53a.94.94,0,0,0,1,.9.9.9,0,0,0,.92-.91.94.94,0,0,0-1-.9A.91.91,0,0,0,515.69,119.53Z" style="fill:#263238"></path><path d="M511.69,103.6a2.94,2.94,0,0,1-2.48,1.39,7.29,7.29,0,0,1-1-.3c-.34.21-.26,1.37,0,1.69a5.44,5.44,0,0,0,.73.76c-1.15.62-2.19.31-3.41-.13A6,6,0,0,0,509,111.8a2.1,2.1,0,0,0,1.92,0,2.4,2.4,0,0,0,.85-1.5,26,26,0,0,0,.86-6.4Z" style="fill:#263238"></path><path d="M550.18,144.1c-2.22-1.7-6.14-2.27-6.14-2.27l-7.58-1.57s-4.6,5.57-10.31,4.77-6.08-4.7-6.08-4.7-10.8,1.78-16.74,7.31c5.85,5.54,12.32,9.18,21.78,10.06,8.43,1,19.79-3.18,27.31-11.35C552.42,146.35,552.6,146,550.18,144.1Z" style="fill:#455a64"></path><path d="M560.6,126.55s0-.19,0-.55v-2.75c0-.43-.08-.9-.12-1.41a24,24,0,0,0-.47-3.48,31.88,31.88,0,0,0-3.12-9.07,33.43,33.43,0,0,0-21.36-17,31.16,31.16,0,0,0-4.16-.75c-.71-.07-1.42-.19-2.15-.23l-2.19,0c-.37,0-.74,0-1.11,0l-1.12.09c-.74.08-1.5.12-2.25.22a36.3,36.3,0,0,0-8.93,2.63c-.72.33-1.42.73-2.14,1.09a17.63,17.63,0,0,0-2.08,1.25,35.9,35.9,0,0,0-4,2.94,38.56,38.56,0,0,0-3.49,3.62,32.16,32.16,0,0,0-5.32,8.8,32.94,32.94,0,0,0-1.36,20.87,32.11,32.11,0,0,0,4.13,9.42,36.44,36.44,0,0,0,3,4,35.77,35.77,0,0,0,3.54,3.43,17,17,0,0,0,1.9,1.51c.67.45,1.31.94,2,1.36a33.41,33.41,0,0,0,4.19,2.18,34.16,34.16,0,0,0,4.33,1.58c.73.21,1.47.34,2.2.51l1.1.24c.36.08.73.1,1.1.15l2.18.25c.72.06,1.45,0,2.16.06a30.91,30.91,0,0,0,4.22-.21,33.3,33.3,0,0,0,23.38-14.12,31.76,31.76,0,0,0,4.27-8.59,23,23,0,0,0,.92-3.39c.11-.49.23-.95.31-1.37s.1-.82.14-1.16l.21-1.58c0-.35.09-.53.09-.53s0,.18,0,.54-.09.9-.15,1.58c0,.35-.08.74-.13,1.17s-.18.88-.28,1.38a22.75,22.75,0,0,1-.88,3.42,31.48,31.48,0,0,1-4.22,8.7,33.53,33.53,0,0,1-23.57,14.38,31.71,31.71,0,0,1-4.27.23c-.73,0-1.46,0-2.19-.06l-2.22-.25c-.37,0-.74-.07-1.11-.14l-1.11-.24c-.74-.17-1.49-.31-2.24-.51a36.76,36.76,0,0,1-4.39-1.6,35.7,35.7,0,0,1-4.25-2.2c-.69-.43-1.34-.92-2-1.38A16.62,16.62,0,0,1,505.6,150a35.77,35.77,0,0,1-3.6-3.48,38.92,38.92,0,0,1-3.05-4.1,32.59,32.59,0,0,1-4.2-9.56,33.38,33.38,0,0,1,1.38-21.19,32.59,32.59,0,0,1,5.41-8.93,37.46,37.46,0,0,1,3.55-3.68,38.3,38.3,0,0,1,4-3,16.9,16.9,0,0,1,2.12-1.26c.73-.37,1.43-.77,2.17-1.11a36.43,36.43,0,0,1,9.07-2.64c.76-.11,1.52-.14,2.28-.22l1.13-.09c.37,0,.75,0,1.12,0l2.23,0c.73,0,1.46.16,2.18.24a30.64,30.64,0,0,1,4.21.77,33.58,33.58,0,0,1,21.51,17.32,31.94,31.94,0,0,1,3.06,9.17,22.32,22.32,0,0,1,.42,3.5c0,.51.09,1,.1,1.41s0,.83,0,1.18c0,.68,0,1.21,0,1.59S560.6,126.55,560.6,126.55Z" style="fill:#263238"></path></g><g id="freepik--Target--inject-2"><circle cx="133.57" cy="159.7" r="72.17" style="fill:#7942C8"></circle><circle cx="133.57" cy="159.7" r="72.17" style="opacity:0.30000000000000004"></circle><circle cx="131.62" cy="155.08" r="72.17" style="fill:#7942C8"></circle><circle cx="131.62" cy="155.08" r="56.14" style="fill:#fff"></circle><circle cx="131.62" cy="155.08" r="39.5" transform="translate(-71.11 138.5) rotate(-45)" style="fill:#7942C8"></circle><circle cx="131.62" cy="155.08" r="20.84" transform="translate(-71.11 138.5) rotate(-45)" style="fill:#fff"></circle><polygon points="187.46 96.63 185.5 81.23 201.17 64.46 202.3 81.08 187.46 96.63" style="fill:#455a64"></polygon><polygon points="221.1 84.38 205.2 83.09 189.26 98.42 205.2 100.12 221.1 84.38" style="fill:#455a64"></polygon><path d="M131.62,156.3l59.25-42.43a79.47,79.47,0,0,0-7.52-9.3L132.6,153.64Z" style="opacity:0.30000000000000004"></path><path d="M204.65,77.87l-7.44,7.53-17.85,18.09-21.51,21.8-18.68,18.93c-3,3.06-6.19,6-9.1,9.22l-.13.13c-1.76,1.78,1,4.52,2.74,2.74l7.44-7.53L158,130.69l21.51-21.8L198.17,90c3-3.06,6.18-6,9.09-9.21l.13-.14c1.76-1.78-1-4.52-2.74-2.74Z" style="fill:#263238"></path></g></svg>
